<svg width="116" height="119" viewBox="0 0 116 119" fill="none" xmlns="http://www.w3.org/2000/svg">
<g opacity="0.3">
<path d="M18.1435 65.2317C19.0478 65.1075 20.0687 64.7099 21.148 64.1881C22.2273 63.6663 23.3649 63.0451 24.4733 62.4488C23.4232 62.6724 22.3731 62.9954 21.3522 63.4427C20.3312 63.8899 19.2811 64.4863 18.1435 65.2317Z" fill="#E5E9F2"/>
<path d="M24.5317 62.4239L24.5608 62.3991C24.5317 62.4239 24.5025 62.4239 24.4733 62.4488C24.5025 62.4488 24.5317 62.4239 24.5317 62.4239Z" fill="#E5E9F2"/>
<path d="M160.696 96.2419C160.054 96.4656 159.325 96.7141 158.595 96.9625C159.325 96.7637 160.054 96.5401 160.696 96.2419Z" fill="#E5E9F2"/>
<path d="M38.4164 57.6283L40.8667 56.6095C40.6917 56.8331 40.0208 57.1065 39.4082 57.3301C38.7956 57.5537 38.2706 57.7525 38.5039 57.7276C40.0208 57.3052 39.7582 57.5289 39.4374 57.678C39.0873 57.8519 38.6789 57.9513 39.2915 57.9761C39.0873 57.9761 38.9123 58.1252 38.2122 58.1004C38.8248 58.1252 38.854 58.1749 38.7956 58.2246C38.7081 58.2743 38.5623 58.2743 38.6498 58.3489C38.9415 58.4482 38.9998 58.3985 39.3498 58.4234C39.3498 58.4234 39.4082 58.4979 39.4374 58.6222C39.4665 58.7216 39.4957 58.8458 39.4957 58.8458C39.0582 58.8707 38.5039 58.6222 38.4456 58.4979C38.3872 58.5228 38.3581 58.5476 38.2997 58.5725C38.2706 58.5725 38.2706 58.5725 38.2706 58.5725C38.1539 58.7464 38.008 58.8955 37.8914 59.0694C37.5705 59.4919 37.2205 59.9391 36.8704 60.4112C36.1412 61.3554 35.3828 62.3991 34.5369 63.5172C33.6909 64.6354 32.8158 65.8281 31.8824 67.0953C28.1779 72.1394 23.8316 78.252 19.6603 84.4889C18.6102 86.0543 17.5601 87.5949 16.5684 89.1603C16.0725 89.9306 15.5474 90.7009 15.0515 91.4711L14.6723 92.0426L14.614 92.1172L13.9723 93.2105L13.6806 93.7323C13.5931 93.9062 13.4764 94.105 13.418 94.2292C13.2722 94.5026 13.1263 94.8008 13.0097 95.0741C12.7471 95.6704 12.4846 96.2419 12.2513 96.9128C11.7845 98.2298 11.347 99.6709 11.1136 101.634C11.0553 102.056 11.0261 102.653 10.997 103.199C10.997 103.473 10.997 103.746 10.997 104.019C10.997 104.342 11.0261 104.665 11.0261 104.988C11.0553 105.311 11.0845 105.634 11.1136 105.957L11.1428 106.206L11.172 106.479L11.2595 107.051C11.3178 107.424 11.4053 107.796 11.4928 108.169L11.6387 108.716C11.697 108.914 11.7554 109.138 11.8429 109.362C11.9887 109.784 12.1346 110.206 12.3096 110.629C12.4846 111.051 12.6305 111.424 12.893 111.896C13.1263 112.343 13.3889 112.791 13.6514 113.238C13.7972 113.462 13.9139 113.685 14.0598 113.884C14.2056 114.108 14.3515 114.306 14.5265 114.53C15.1974 115.425 15.9266 116.294 16.7434 117.089C17.5601 117.884 18.4644 118.605 19.3978 119.276C19.6312 119.45 19.8645 119.574 20.0687 119.723C20.3021 119.872 20.5354 120.021 20.7688 120.146C21.2355 120.419 21.7022 120.692 22.1981 120.941C22.4315 121.065 22.694 121.189 22.9273 121.313L23.8608 121.736L23.9483 121.761L24.0358 121.81L24.6192 122.034C24.9984 122.183 25.3776 122.307 25.786 122.457L26.6611 122.755L26.8944 122.829C27.4195 122.978 27.9445 123.103 28.4696 123.227C29.4905 123.45 30.5114 123.6 31.4157 123.699C31.6491 123.724 31.8824 123.749 32.1158 123.773L32.7575 123.823L33.3992 123.848H34.0118C34.391 123.848 34.7994 123.848 35.1786 123.848C35.5286 123.848 35.8787 123.823 36.2287 123.798C37.5705 123.699 38.6789 123.55 39.6124 123.376C40.5166 123.202 41.275 123.028 41.9168 122.879C42.2085 122.804 42.5293 122.73 42.7627 122.655L42.9377 122.606L43.4044 122.457L43.5503 122.407C43.7545 122.332 43.9878 122.283 44.192 122.208L44.5129 122.109L44.6879 122.059L44.9796 121.96C45.3588 121.835 45.7088 121.711 46.088 121.587C46.2631 121.537 46.4672 121.463 46.6423 121.413C46.8173 121.363 47.0215 121.289 47.1381 121.239C49.5301 120.394 51.6303 119.475 53.4971 118.605C55.3348 117.735 56.9683 116.891 58.3393 116.145C61.1104 114.605 63.0356 113.387 64.3482 112.542C63.444 112.666 62.1897 113.337 60.877 113.983C60.2061 114.306 59.5352 114.605 58.8643 114.828C58.5435 114.928 58.2226 115.027 57.9017 115.077C57.5809 115.126 57.2892 115.151 57.0267 115.151C57.7851 114.58 58.3976 114.132 59.0102 113.785C59.5936 113.437 60.1186 113.163 60.5854 112.915C61.0521 112.666 61.4604 112.468 61.8105 112.244C62.1313 112.02 62.423 111.772 62.6272 111.449C63.1814 111.623 63.8524 111.499 64.5816 111.2C64.9316 111.051 65.34 110.877 65.7192 110.679C66.0984 110.48 66.5068 110.281 66.9152 110.057C68.4903 109.213 70.2113 108.293 71.7282 108.393L71.8448 107.2L73.4783 106.902C74.1492 106.43 74.7326 106.007 75.2577 105.634L75.3452 105.56C75.3744 105.535 75.4035 105.51 75.4035 105.51L75.4327 105.461C75.4619 105.436 75.491 105.411 75.5202 105.386C75.5786 105.336 75.6077 105.287 75.6661 105.237C75.8411 105.038 75.9869 104.889 76.0744 104.79C76.1328 104.74 76.1619 104.69 76.1911 104.641C76.2203 104.616 76.2203 104.616 76.2495 104.591V104.566C76.2495 104.541 76.2495 104.541 76.2786 104.541C76.3078 104.566 76.4245 104.69 76.6287 104.715C76.7162 104.591 76.8328 104.094 77.0662 103.622C77.2704 103.174 77.5621 102.777 77.5621 103.05C77.5329 103.05 77.5913 102.851 77.6496 102.628C77.7079 102.379 77.8246 102.081 77.9705 101.858C77.7663 102.454 77.9705 102.181 78.2038 101.882C78.4372 101.584 78.7289 101.236 78.4372 101.907C78.583 101.783 78.758 101.659 79.0497 101.361C79.1956 101.212 79.3706 100.988 79.5456 100.715C79.7498 100.416 79.954 100.069 80.1874 99.5964C79.9832 100.044 79.954 100.292 79.8665 100.59C79.779 100.864 79.5748 101.187 79.1372 101.733C79.2831 101.708 79.1956 101.957 79.6623 101.385C79.6623 101.385 79.7206 101.261 79.779 101.137C79.8373 101.013 79.8665 100.888 79.8665 100.888C80.304 100.541 80.304 100.764 80.3915 100.789C80.4791 100.814 80.6832 100.665 81.9084 99.3976C81.9084 99.3976 82.0542 99.174 82.2001 98.9752C82.3167 98.7764 82.4626 98.5528 82.4626 98.5528C83.1043 98.1304 83.8336 97.6334 81.5292 100.242C81.5292 100.242 81.2666 100.491 80.9749 100.739C80.7124 100.988 80.4499 101.212 80.4499 101.212C80.7416 101.038 80.9749 100.888 81.4125 100.541C81.85 100.193 82.4626 99.6461 83.571 98.7516C83.571 98.7516 83.5419 98.7516 83.5127 98.7516C83.4835 98.7516 83.4544 98.7516 83.4544 98.7516C84.0669 98.2049 84.8253 97.5837 85.7296 97.0371C85.9629 96.9128 86.1963 96.7637 86.4588 96.6643C86.5172 96.6395 86.5755 96.6147 86.6338 96.5898C86.6922 96.565 86.7505 96.5401 86.7797 96.5153C86.8089 96.4904 86.8672 96.4904 86.8964 96.4656C87.0422 96.4159 87.1589 96.391 87.2756 96.4159C87.7131 96.4407 87.859 96.9128 88.034 97.4098C88.1798 97.8819 88.3549 98.4286 88.9674 98.354C88.9674 98.354 89.5217 97.9316 90.0759 97.4843C90.6593 97.0371 91.2135 96.5898 91.2135 96.5898C91.2135 96.5898 91.3593 96.7141 91.5052 96.8631C91.651 97.0122 91.7385 97.211 91.7385 97.211C91.7969 97.1116 90.5426 97.6831 89.2883 98.3043C88.034 98.9255 86.8089 99.5716 87.1297 99.3479C86.8089 99.8697 86.1963 100.938 85.3504 102.355C84.5336 103.771 83.5127 105.56 82.4626 107.448C81.675 108.84 80.8874 110.206 80.129 111.573C79.2248 113.213 78.3205 114.803 77.4746 116.394C77.037 117.189 76.6287 117.959 76.2203 118.729C75.8119 119.5 75.4035 120.27 75.0243 121.015C74.616 121.761 74.2367 122.506 73.8575 123.227C73.4783 123.947 73.1283 124.668 72.7783 125.364C72.049 126.755 71.4073 128.072 70.7947 129.29C70.6489 129.588 70.503 129.886 70.3572 130.184C70.2697 130.333 70.2113 130.482 70.1238 130.631L70.0655 130.731L69.8905 131.079L69.8321 131.178L69.6863 131.501C69.6279 131.65 69.5696 131.799 69.5113 131.973L69.4238 132.197L69.3654 132.371C69.2779 132.594 69.2196 132.843 69.1321 133.067C69.0737 133.315 68.9862 133.564 68.9279 133.787C68.8695 134.036 68.8112 134.309 68.7529 134.557C68.5487 135.626 68.4028 136.843 68.5487 138.459C68.5778 138.881 68.6362 139.254 68.7237 139.751C68.782 139.999 68.8112 140.223 68.8987 140.471L68.9862 140.819L69.1029 141.242C69.1904 141.515 69.2779 141.788 69.3946 142.062L69.5696 142.459L69.5988 142.558L69.6571 142.683L69.7738 142.906C69.9196 143.205 70.0947 143.503 70.2697 143.801C70.3572 143.95 70.4447 144.099 70.5322 144.248L70.678 144.472L70.8531 144.72C71.0864 145.043 71.3198 145.341 71.5531 145.64C71.6698 145.789 71.8157 145.938 71.9324 146.087C72.049 146.236 72.1949 146.385 72.3407 146.534C72.9241 147.13 73.595 147.702 74.2659 148.199C74.966 148.696 75.6952 149.143 76.4536 149.516C77.1829 149.889 77.883 150.162 78.6122 150.435C78.7872 150.51 78.9914 150.56 79.1664 150.609L79.8373 150.808L79.8957 150.833L80.0707 150.883L80.479 150.982C80.7707 151.056 81.0333 151.106 81.325 151.156L82.0542 151.28C82.4042 151.33 82.7835 151.379 83.1335 151.404C84.5628 151.529 85.7296 151.479 86.7214 151.379C87.684 151.28 88.4715 151.131 89.0841 151.007C89.6967 150.883 90.1634 150.758 90.5426 150.634C90.9218 150.51 91.301 150.41 91.651 150.311C91.8552 150.261 92.0594 150.187 92.2344 150.137C92.6136 150.038 92.9637 149.938 93.2554 149.864C97.1933 149.093 94.4805 150.907 94.5096 151.032C98.9434 149.267 96.114 149.566 99.9936 148.373C101.102 148.174 100.052 149.069 99.4977 149.367C101.16 148.721 102.852 148.497 102.823 148.075C100.577 148.472 101.044 147.205 99.8477 146.857L104.865 145.341L104.923 146.037C106.032 145.689 106.994 143.428 112.041 142.186C120.412 139.775 129.28 136.67 137.652 134.135C137.681 134.557 136.047 135.328 134.385 136.123C135.493 135.775 137.156 135.129 138.293 135.079C135.989 135.079 141.589 133.514 139.898 133.737C145.294 130.259 153.782 129.091 158.712 126.333C158.566 124.817 159.82 99.2734 159.091 97.6583C160.783 97.1613 162.446 96.6395 163 96.6147C162.387 96.3662 159.033 97.2607 157.399 98.031L157.487 99.0001C153.607 100.59 156.32 98.8013 152.441 100.118C151.916 99.4722 155.445 98.1552 158.595 97.0619C155.708 97.9067 152.645 98.3043 151.828 99.4473C149.028 100.019 151.74 98.4783 148.386 99.2237C146.169 100.168 143.456 101.833 140.627 102.28V102.131C133.889 103.473 131.263 106.38 125.079 107.548L125.604 107.1C123.358 107.349 119.508 109.237 115.57 110.008C116.708 109.809 117.845 110.008 115.658 110.828C111.166 111.772 108.424 113.163 105.011 113.635L102.298 115.3C98.5351 116.468 92.0302 118.605 84.1836 121.239C83.1918 121.562 82.2001 121.91 81.1791 122.233C80.6541 122.407 80.1582 122.581 79.6331 122.755L79.2539 122.879L79.1664 122.904C79.1956 122.953 79.1373 122.804 79.1956 123.003L80.3332 125.637L81.6458 128.619L82.3459 130.284L83.2502 132.421L83.7752 133.713L84.0961 134.582L84.3294 135.228L84.417 135.502L84.4753 135.725C84.6503 136.322 84.7086 136.67 84.7378 136.943C84.767 137.216 84.767 137.39 84.7378 137.49C84.7086 137.514 84.7378 137.539 84.767 137.564C84.767 137.564 84.7962 137.589 84.767 137.589H84.6503C84.8837 137.316 84.7087 137.514 84.767 137.465V137.49C84.767 137.514 84.7378 137.539 84.7378 137.564C84.6503 137.738 84.6211 137.663 84.9128 137.539C85.2045 137.415 85.7004 137.316 86.4005 137.266C87.0714 137.216 87.8006 137.291 88.4715 137.365C88.6174 137.39 88.7632 137.415 88.9091 137.44L89.2883 137.514L89.5508 137.564L89.6383 137.589C89.6675 137.589 89.6967 137.614 89.6967 137.614C89.6967 137.639 89.6675 137.663 89.6675 137.688L89.6383 137.663L89.6091 137.589L89.5216 137.465L89.4925 137.39C114.053 146.137 96.3182 139.8 101.773 141.738V141.714L101.802 141.639L101.89 141.465C102.094 141.018 102.298 140.595 102.502 140.148C103.319 138.359 104.223 136.57 105.098 134.731C106.032 132.917 106.936 131.079 107.899 129.24C108.832 127.401 109.853 125.562 110.815 123.749C111.311 122.829 111.807 121.935 112.303 121.04L112.478 120.692L112.77 120.195C113.032 119.748 113.295 119.326 113.528 118.878C114.053 118.009 114.549 117.139 115.045 116.269C117.029 112.791 119.158 109.436 121.142 106.156C122.162 104.516 123.183 102.901 124.175 101.336C124.671 100.541 125.167 99.7703 125.634 98.9752C126.13 98.2049 126.625 97.4346 127.092 96.6643C128.055 95.1486 129.017 93.6578 129.922 92.2166C130.855 90.7754 131.759 89.3591 132.634 87.9924C134.385 85.2592 136.047 82.6998 137.564 80.3144C140.598 75.5933 143.135 71.6922 145.002 68.8098L144.652 69.5801C148.707 63.2439 153.549 55.7647 159.558 46.5461C156.349 45.5522 152.878 44.4092 149.319 43.1668C148.882 43.0177 148.444 42.8437 147.978 42.6947L147.657 42.5704L147.482 42.5207C147.482 42.5207 147.365 42.4959 147.307 42.4959L147.073 42.471C146.461 42.3965 145.907 42.3219 145.382 42.2474C143.281 41.9989 141.881 41.9492 140.656 41.9244C138.352 41.9244 136.135 41.9492 133.568 41.9492H132.605C132.255 41.9492 131.905 41.9741 131.584 41.9741C130.884 41.9989 130.213 41.9989 129.542 42.0238H129.163L129.017 42.0486L128.405 42.1231C127.996 42.1728 127.588 42.2225 127.209 42.2474C126.421 42.3468 125.604 42.4213 124.817 42.5207C123.883 42.7195 122.921 42.9431 121.987 43.1419C121.521 43.2413 121.054 43.3407 120.587 43.4649L119.537 43.6886L119.129 43.8377C118.02 44.2601 116.912 44.6576 115.803 45.0552C115.249 45.254 114.724 45.4528 114.17 45.6516C113.907 45.7509 113.616 45.8503 113.353 45.9497C113.295 45.9746 113.237 45.9994 113.149 46.0243L112.449 46.397C111.195 47.043 109.97 47.6642 108.744 48.2854C108.132 48.6085 107.519 48.9066 106.936 49.2297C106.323 49.5278 105.74 49.8509 105.127 50.1739C102.706 51.4908 100.344 52.7829 98.0683 54.0253C95.7639 55.3174 93.5762 56.5598 91.4468 57.7525C89.3174 58.97 87.2756 60.1379 85.3504 61.2809C84.6503 61.5542 83.8919 61.8773 83.1335 62.2251C82.3459 62.573 81.5292 62.9706 80.6832 63.393C78.9914 64.2378 77.2412 65.1572 75.4327 66.1014C71.8448 68.0892 68.1986 70.0771 65.0775 71.8164C66.8568 70.9716 67.4694 70.8474 67.3235 71.1455C67.1777 71.4437 66.2443 72.1146 64.9316 72.86C63.7648 73.5309 62.7439 74.1273 61.8396 74.6491C61.4021 74.9224 60.9646 75.146 60.5854 75.3697C60.2353 75.5685 59.9145 75.7673 59.6228 75.9412C58.4268 76.6618 57.6101 77.1587 57.0558 77.5314C55.9474 78.252 55.8307 78.4011 55.7432 78.5751C55.6557 78.749 55.539 78.9229 54.4597 79.6932C54.4014 79.7429 54.3139 79.7926 54.2555 79.8423C54.1972 79.8672 54.168 79.9168 54.1097 79.9417C53.993 80.0162 53.8763 80.0908 53.7597 80.1902C53.4971 80.3641 53.2054 80.5877 52.8262 80.8362C52.097 81.3332 51.1344 81.9544 49.8509 82.7744C49.1217 83.2713 48.2758 83.8428 47.284 84.464C46.3214 85.0852 45.2421 85.7561 44.0753 86.5264C41.8293 87.9427 39.3499 89.4585 36.9288 90.676C35.7036 91.2972 34.5077 91.819 33.3409 92.2663C33.0492 92.3657 32.7283 92.4899 32.5825 92.5396C32.495 92.5644 32.4075 92.6141 32.32 92.639L32.2908 92.6638L31.0657 93.0117H31.0365C30.9782 93.0366 31.5616 92.8626 31.299 92.9372C31.5616 93.6329 31.8241 94.3038 32.0866 94.9995L32.4366 95.9189L32.7575 96.8134C32.9034 97.2359 33.0784 97.6831 33.1951 98.1304L33.3701 98.6522L33.5159 99.1491C33.8951 100.392 34.0701 101.187 34.1577 101.858C34.2452 102.504 34.2452 103.001 34.216 103.348C34.216 103.423 34.216 103.498 34.1868 103.572C34.1576 103.647 34.1577 103.696 34.1577 103.746C34.1285 103.845 34.0701 103.92 34.1577 103.994V104.044H34.1285L34.041 104.019L33.9826 103.994H33.9535C34.041 103.92 33.6909 104.168 34.1577 103.821C34.1577 103.845 34.1285 103.845 34.1285 103.87C34.0993 103.895 34.0701 103.945 34.041 103.97C34.0118 103.994 34.0118 103.994 33.9826 104.019C33.9535 104.044 33.9826 104.044 33.9535 104.044L33.8951 104.094C33.8951 104.094 33.8951 104.094 33.9243 104.094L33.9535 104.069H33.9826C34.0118 104.069 34.0118 104.044 34.041 104.044C34.0701 104.019 34.1285 103.994 34.1577 103.994C34.1868 103.994 34.1868 103.994 34.216 103.97C34.2452 103.945 34.3035 103.945 34.3327 103.92C34.4785 103.87 34.5952 103.87 34.8286 103.821C35.587 103.671 36.8413 103.696 38.1539 103.87C39.4665 104.044 40.8667 104.392 41.7709 104.69L42.3543 104.889C42.5002 104.939 42.7044 104.988 42.6752 105.063C42.6752 105.088 42.7044 105.137 42.7044 105.162V105.212C42.7044 105.237 42.7044 105.187 42.7044 105.187V105.137L42.6752 104.939L42.646 104.839V104.79C50.7843 108.914 44.8921 105.933 46.7298 106.827V106.802C46.9923 106.405 47.2548 106.007 47.4882 105.634C48.0132 104.839 48.5091 104.069 49.0342 103.274C53.1763 96.9874 57.4642 90.8251 61.2271 85.7313C62.1605 84.464 63.0648 83.2465 63.9107 82.1035C64.7566 80.9605 65.5734 79.9168 66.3318 78.9478C67.061 77.9787 67.7611 77.109 68.3736 76.3387C68.6945 75.966 68.957 75.5933 69.2487 75.2703C69.4529 74.997 69.6571 74.7485 69.8321 74.5248C70.0655 74.2267 70.2697 73.9533 70.4739 73.7049C71.1739 72.5122 71.9032 71.3195 72.7199 70.1268C73.5075 68.9341 74.3534 67.7165 75.1993 66.499C75.6369 65.9026 76.0744 65.2814 76.512 64.6602C76.9495 64.039 77.4162 63.4427 77.883 62.8215C78.8164 61.6039 79.779 60.3615 80.7124 59.1191C81.1791 58.4979 81.675 57.8767 82.1417 57.2804C82.6084 56.6592 83.1335 56.038 83.6294 55.4416C84.6211 54.2241 85.5837 53.0065 86.5172 51.8138C88.3549 49.4533 90.2217 47.1176 91.7385 45.0055L91.4468 45.7758C91.8844 45.2043 92.4969 44.4589 93.2262 43.5395C93.6054 43.0922 93.9846 42.5953 94.4221 42.0735C94.8597 41.5516 95.2681 41.005 95.764 40.4086C96.6974 39.2408 97.7475 37.9487 98.8851 36.5324C99.4685 35.8366 100.052 35.0912 100.664 34.3458C101.16 33.65 101.656 32.9294 102.181 32.2088C103.231 30.7428 104.311 29.1774 105.448 27.5871C105.477 27.5374 105.536 27.4877 105.536 27.438L105.711 27.0653C105.769 26.9162 105.857 26.7423 105.915 26.5932C106.061 26.2702 106.207 25.9472 106.353 25.6241C106.644 24.9781 106.965 24.3072 107.257 23.6114C107.403 23.2636 107.578 22.9406 107.724 22.5927C107.811 22.4187 107.869 22.2448 107.957 22.0709C108.015 21.9715 108.015 21.9218 108.015 21.8472L108.074 21.6485C108.219 21.1018 108.336 20.58 108.482 20.0333C108.628 19.4867 108.744 18.94 108.89 18.3934L109.007 17.971L109.065 17.7722L109.094 17.5982L109.211 16.8777C109.357 15.9583 109.474 15.0886 109.561 14.2686C109.649 13.4486 109.707 12.7032 109.707 11.9826C109.707 10.5911 109.678 9.29904 109.503 8.18088C109.415 7.60938 109.328 7.08757 109.211 6.61546C109.153 6.36699 109.094 6.14335 108.949 5.84518C108.803 5.547 108.569 5.19913 108.219 4.80157C107.899 4.42885 107.49 4.05613 107.111 3.7828C106.732 3.50947 106.411 3.28584 106.09 3.13675C105.477 2.81373 105.04 2.6398 104.69 2.5404C104.69 2.5404 104.836 2.6398 104.982 2.73919C105.157 2.86343 105.302 2.96282 105.302 2.96282C104.573 2.71434 104.019 2.5901 103.611 2.5404C103.202 2.49071 102.852 2.44101 102.59 2.36647C102.035 2.24223 101.715 2.09314 101.481 1.89436C101.219 1.69557 101.073 1.47194 100.752 1.22347C100.402 0.999834 99.906 0.726507 99.1185 0.478027C98.6226 1.19862 97.2224 1.57134 95.5889 1.89436C93.8096 2.26708 91.8844 2.51556 90.8926 2.5901L91.301 2.24223C90.7176 2.26708 89.6967 2.49071 88.5882 2.71434C87.4506 2.93797 86.1963 3.23615 84.8253 3.53432C84.6503 3.58402 84.5045 3.60887 84.3003 3.65856C84.0961 3.7331 83.8919 3.7828 83.6877 3.85734C83.2793 3.98158 82.871 4.13067 82.4626 4.25491C81.6458 4.52824 80.7999 4.80157 79.954 5.07489C79.1373 5.34822 78.2913 5.62155 77.4454 5.89487C77.0662 5.99427 76.5703 6.2179 76.1328 6.41668C75.6661 6.59062 75.2285 6.7894 74.791 6.96334C73.2158 7.65908 71.7573 8.28028 70.4155 8.85178L71.4073 7.70877C69.5696 8.6033 67.411 9.64691 65.1358 10.6408C62.8898 11.6347 60.4978 12.6784 58.1643 13.6971C56.9975 14.1941 55.8599 14.7159 54.7514 15.188C54.1972 15.4365 53.643 15.6601 53.1179 15.8837C52.5929 16.1074 52.0678 16.3559 51.5428 16.5795C49.5301 17.4989 47.7799 18.294 46.5256 18.8903C45.8255 19.1885 45.0963 19.5115 44.3379 19.8346C43.5795 20.1824 42.7919 20.5303 41.9751 20.8782C40.3416 21.5988 38.6498 22.3442 36.8996 23.1145C36.0245 23.4872 35.0911 23.9345 34.1868 24.3569C33.2534 24.8041 32.32 25.2514 31.3574 25.6987C30.3948 26.1459 29.4322 26.618 28.4404 27.0902C27.9445 27.3386 27.4486 27.5623 26.9528 27.8107C26.4569 28.0592 25.961 28.3077 25.4651 28.581C23.4524 29.5998 21.4105 30.6683 19.3686 31.7367L18.7852 32.0846L18.0268 32.4822L16.9476 33.0785C16.335 33.4264 15.6933 33.7742 15.0807 34.1221C14.4681 34.47 13.8556 34.8427 13.243 35.1906C12.6305 35.5633 12.0471 35.936 11.4637 36.3087C10.2969 37.0542 9.1301 37.8245 8.05082 38.5947C8.05082 38.5947 6.2423 39.1166 4.40461 39.6384C3.50035 39.9117 2.56693 40.1602 1.89603 40.3589C1.22513 40.5577 0.758408 40.7068 0.758408 40.7068L0 41.4026C0 41.4026 0.379204 42.9183 1.22512 45.1546C2.07104 47.3661 3.35451 50.2733 5.13385 53.0811C6.9132 55.8641 9.18844 58.5476 11.9304 60.3118C14.6723 62.1009 17.8518 62.9706 21.5272 62.2251L21.7897 62.8712L23.9774 61.43C25.4359 60.7342 26.3402 60.0634 26.9236 59.6409C27.507 59.2185 27.7695 59.0446 27.8862 59.3676C27.8862 59.3676 26.9528 59.8894 25.9902 60.4361C25.0567 60.9827 24.1233 61.5294 24.1233 61.5294C26.9527 60.0385 25.2901 61.4797 24.5317 62.3991C25.6985 61.7779 26.8361 61.1567 27.8862 60.8088C28.2654 60.287 27.3028 60.8088 26.7777 60.9579C28.0904 59.9143 29.7239 58.1749 31.7366 57.4046C33.1659 56.6343 33.3992 56.8331 33.6618 56.9822C33.8076 57.0568 33.9535 57.1313 34.2743 57.0816C34.4494 57.0568 34.6535 56.9822 34.9161 56.8828C35.0619 56.8331 35.2078 56.7586 35.3828 56.684C35.4703 56.6343 35.5578 56.5846 35.6453 56.5598C35.7036 56.5349 35.7328 56.5101 35.7911 56.4853L35.8787 56.4356L35.9078 56.4107C36.0537 56.3362 36.0537 56.3362 36.112 56.3362L36.2579 56.2865L36.5204 56.2119C36.6954 56.1622 36.8704 56.1374 37.0163 56.1125C37.3371 56.0628 37.5997 56.0131 37.833 56.0131C38.2997 55.9883 38.5623 56.0628 38.7665 56.1125C39.029 56.1622 39.1748 56.1871 39.6999 55.9137C39.029 56.5349 39.029 56.535 38.7081 56.8331C39.1748 56.4604 39.4082 56.3113 39.6707 56.1374C39.8166 56.0628 39.9624 55.9883 40.1374 55.9137C40.3416 55.8641 40.4583 55.8144 40.6625 55.715C39.6707 56.4604 38.3581 57.3798 37.5122 57.9761C37.9497 57.678 38.2706 57.4543 38.4748 57.3301C38.6789 57.2058 38.7665 57.2058 38.7665 57.2555C38.7665 57.3052 38.7081 57.3798 38.6206 57.4792C38.5914 57.5289 38.5039 57.6034 38.4164 57.6283Z" fill="#E5E9F2"/>
</g>
</svg>
