<svg width="125" height="19" viewBox="0 0 125 19" fill="none" xmlns="http://www.w3.org/2000/svg">
<path fill-rule="evenodd" clip-rule="evenodd" d="M7.62269 3.2367C5.16131 3.2367 3.16597 5.20307 3.16597 7.6287V17.9679H0V7.6287C0 3.47994 3.41279 0.116699 7.62269 0.116699H10.8666V3.2367H7.62269ZM14.0374 3.5391L14.0374 6.19032C14.0374 10.3391 10.6246 13.7023 6.41473 13.7023H4.52974V10.5823H6.41473C8.8761 10.5823 10.8714 8.61594 10.8714 6.19031L10.8715 3.53909L14.0374 3.5391ZM14.0374 13.4095V18.1167H10.8715V13.4095H14.0374Z" fill="#2A3848"/>
<path d="M81.07 12.3107H77.0357L76.2861 14.1374H73.533L77.7445 4.7353H80.4022L84.6273 14.1374H81.8196L81.07 12.3107ZM80.2795 10.3497L79.0529 7.34101L77.8262 10.3497H80.2795Z" fill="#2A3848"/>
<path d="M88.9785 14.2582C88.1607 14.2582 87.4293 14.0971 86.7842 13.7747C86.139 13.4523 85.6348 13.0046 85.2713 12.4316C84.9169 11.8585 84.7398 11.2093 84.7398 10.484C84.7398 9.75868 84.9169 9.11397 85.2713 8.54984C85.6348 7.97677 86.139 7.53353 86.7842 7.22013C87.4293 6.89777 88.1607 6.73659 88.9785 6.73659C89.8144 6.73659 90.5368 6.91568 91.1456 7.27385C91.7544 7.62307 92.186 8.11108 92.4404 8.73789L90.4368 9.74525C90.1007 9.09158 89.61 8.76475 88.9649 8.76475C88.5015 8.76475 88.1153 8.91697 87.8064 9.22142C87.5065 9.52587 87.3566 9.94672 87.3566 10.484C87.3566 11.0302 87.5065 11.46 87.8064 11.7734C88.1153 12.0779 88.5015 12.2301 88.9649 12.2301C89.61 12.2301 90.1007 11.9032 90.4368 11.2496L92.4404 12.2569C92.186 12.8837 91.7544 13.3762 91.1456 13.7344C90.5368 14.0836 89.8144 14.2582 88.9785 14.2582Z" fill="#2A3848"/>
<path d="M97.1109 14.2582C96.2931 14.2582 95.5617 14.0971 94.9166 13.7747C94.2714 13.4523 93.7671 13.0046 93.4037 12.4316C93.0493 11.8585 92.8722 11.2093 92.8722 10.484C92.8722 9.75868 93.0493 9.11397 93.4037 8.54984C93.7671 7.97677 94.2714 7.53353 94.9166 7.22013C95.5617 6.89777 96.2931 6.73659 97.1109 6.73659C97.9468 6.73659 98.6692 6.91568 99.278 7.27385C99.8868 7.62307 100.318 8.11108 100.573 8.73789L98.5692 9.74525C98.2331 9.09158 97.7424 8.76475 97.0973 8.76475C96.6339 8.76475 96.2477 8.91697 95.9388 9.22142C95.6389 9.52587 95.489 9.94672 95.489 10.484C95.489 11.0302 95.6389 11.46 95.9388 11.7734C96.2477 12.0779 96.6339 12.2301 97.0973 12.2301C97.7424 12.2301 98.2331 11.9032 98.5692 11.2496L100.573 12.2569C100.318 12.8837 99.8868 13.3762 99.278 13.7344C98.6692 14.0836 97.9468 14.2582 97.1109 14.2582Z" fill="#2A3848"/>
<path d="M109.019 10.5108C109.019 10.5288 109.005 10.7392 108.978 11.1421H103.608C103.717 11.5182 103.926 11.8092 104.235 12.0152C104.553 12.2122 104.948 12.3107 105.42 12.3107C105.775 12.3107 106.079 12.2614 106.334 12.1629C106.597 12.0644 106.861 11.9032 107.124 11.6794L108.487 13.0763C107.769 13.8642 106.72 14.2582 105.339 14.2582C104.476 14.2582 103.717 14.0971 103.063 13.7747C102.408 13.4523 101.9 13.0046 101.536 12.4316C101.182 11.8585 101.005 11.2093 101.005 10.484C101.005 9.76763 101.177 9.1274 101.522 8.56328C101.877 7.9902 102.363 7.54248 102.981 7.22013C103.599 6.89777 104.294 6.73659 105.066 6.73659C105.802 6.73659 106.47 6.88881 107.07 7.19326C107.669 7.48876 108.142 7.92304 108.487 8.49612C108.841 9.06024 109.019 9.73182 109.019 10.5108ZM105.08 8.54984C104.68 8.54984 104.344 8.66177 104.071 8.88563C103.808 9.10949 103.64 9.41394 103.567 9.79897H106.593C106.52 9.41394 106.347 9.10949 106.075 8.88563C105.811 8.66177 105.48 8.54984 105.08 8.54984Z" fill="#2A3848"/>
<path d="M115.024 6.73659C115.941 6.73659 116.677 7.00522 117.232 7.54248C117.795 8.07974 118.077 8.89011 118.077 9.97359V14.1374H115.487V10.39C115.487 9.39603 115.083 8.89906 114.274 8.89906C113.829 8.89906 113.47 9.04233 113.197 9.32887C112.934 9.61541 112.802 10.0452 112.802 10.6183V14.1374H110.213V6.85747H112.68V7.64993C112.97 7.35444 113.316 7.13058 113.715 6.97836C114.115 6.81718 114.551 6.73659 115.024 6.73659Z" fill="#2A3848"/>
<path d="M124.8 13.8419C124.582 13.9762 124.314 14.0791 123.996 14.1508C123.687 14.2224 123.355 14.2582 123.001 14.2582C122.038 14.2582 121.297 14.0254 120.779 13.5598C120.261 13.0942 120.002 12.4002 120.002 11.4779V9.03338H118.926V7.1261H120.002V5.23226H122.592V7.1261H124.282V9.03338H122.592V11.451C122.592 11.7107 122.66 11.9167 122.796 12.0689C122.942 12.2122 123.133 12.2838 123.369 12.2838C123.669 12.2838 123.932 12.2077 124.159 12.0555L124.8 13.8419Z" fill="#2A3848"/>
<path d="M30.3315 4.56996C31.1765 4.56996 31.908 4.70875 32.5258 4.98634C33.1528 5.26393 33.6344 5.65793 33.9706 6.16833C34.3068 6.67873 34.4749 7.28316 34.4749 7.98161C34.4749 8.6711 34.3068 9.27553 33.9706 9.79488C33.6344 10.3053 33.1528 10.6993 32.5258 10.9769C31.908 11.2455 31.1765 11.3798 30.3315 11.3798H28.4097V13.9721H26.2017V4.56996H30.3315ZM30.2088 9.60684C30.8721 9.60684 31.3764 9.46805 31.7217 9.19046C32.067 8.90392 32.2396 8.50097 32.2396 7.98161C32.2396 7.45329 32.067 7.05034 31.7217 6.77276C31.3764 6.48621 30.8721 6.34294 30.2088 6.34294H28.4097V9.60684H30.2088Z" fill="#2A3848"/>
<path d="M37.9321 7.69954C38.1865 7.35032 38.5272 7.08616 38.9543 6.90707C39.3905 6.72798 39.8902 6.63844 40.4536 6.63844V8.5726C40.2173 8.55469 40.0583 8.54574 39.9765 8.54574C39.3677 8.54574 38.8907 8.71587 38.5454 9.05614C38.2001 9.38746 38.0275 9.8889 38.0275 10.5605V13.9721H35.9013V6.74589H37.9321V7.69954Z" fill="#2A3848"/>
<path d="M45.1404 14.0796C44.3681 14.0796 43.673 13.9229 43.0551 13.6095C42.4463 13.2871 41.9693 12.8439 41.624 12.2797C41.2787 11.7156 41.1061 11.0754 41.1061 10.359C41.1061 9.64266 41.2787 9.00241 41.624 8.43828C41.9693 7.87415 42.4463 7.43538 43.0551 7.12198C43.673 6.79962 44.3681 6.63844 45.1404 6.63844C45.9128 6.63844 46.6033 6.79962 47.2121 7.12198C47.8209 7.43538 48.298 7.87415 48.6432 8.43828C48.9885 9.00241 49.1612 9.64266 49.1612 10.359C49.1612 11.0754 48.9885 11.7156 48.6432 12.2797C48.298 12.8439 47.8209 13.2871 47.2121 13.6095C46.6033 13.9229 45.9128 14.0796 45.1404 14.0796ZM45.1404 12.3603C45.6856 12.3603 46.1309 12.1812 46.4761 11.8231C46.8305 11.4559 47.0077 10.9679 47.0077 10.359C47.0077 9.75011 46.8305 9.26657 46.4761 8.90839C46.1309 8.54126 45.6856 8.35769 45.1404 8.35769C44.5953 8.35769 44.1455 8.54126 43.7911 8.90839C43.4367 9.26657 43.2596 9.75011 43.2596 10.359C43.2596 10.9679 43.4367 11.4559 43.7911 11.8231C44.1455 12.1812 44.5953 12.3603 45.1404 12.3603Z" fill="#2A3848"/>
<path d="M59.9732 6.63844C60.8909 6.63844 61.6178 6.90707 62.1539 7.44434C62.6991 7.97265 62.9717 8.7696 62.9717 9.83518V13.9721H60.8455V10.1575C60.8455 9.58445 60.7228 9.15912 60.4775 8.88153C60.2412 8.59499 59.9005 8.45172 59.4552 8.45172C58.9555 8.45172 58.5602 8.6129 58.2695 8.93526C57.9787 9.24866 57.8333 9.71877 57.8333 10.3456V13.9721H55.7071V10.1575C55.7071 9.02032 55.2437 8.45172 54.3169 8.45172C53.8262 8.45172 53.4355 8.6129 53.1447 8.93526C52.854 9.24866 52.7086 9.71877 52.7086 10.3456V13.9721H50.5824V6.74589H52.6132V7.57866C52.8858 7.2742 53.2174 7.04139 53.6081 6.88021C54.0079 6.71903 54.4441 6.63844 54.9166 6.63844C55.4345 6.63844 55.9025 6.74142 56.3204 6.94737C56.7384 7.14437 57.0746 7.43539 57.329 7.82043C57.6289 7.44434 58.006 7.15332 58.4603 6.94737C58.9237 6.74142 59.428 6.63844 59.9732 6.63844Z" fill="#2A3848"/>
<path d="M68.4465 14.0796C67.6742 14.0796 66.9791 13.9229 66.3612 13.6095C65.7524 13.2871 65.2754 12.8439 64.9301 12.2797C64.5848 11.7156 64.4121 11.0754 64.4121 10.359C64.4121 9.64266 64.5848 9.00241 64.9301 8.43828C65.2754 7.87415 65.7524 7.43538 66.3612 7.12198C66.9791 6.79962 67.6742 6.63844 68.4465 6.63844C69.2188 6.63844 69.9094 6.79962 70.5182 7.12198C71.127 7.43538 71.604 7.87415 71.9493 8.43828C72.2946 9.00241 72.4672 9.64266 72.4672 10.359C72.4672 11.0754 72.2946 11.7156 71.9493 12.2797C71.604 12.8439 71.127 13.2871 70.5182 13.6095C69.9094 13.9229 69.2188 14.0796 68.4465 14.0796ZM68.4465 12.3603C68.9917 12.3603 69.4369 12.1812 69.7822 11.8231C70.1366 11.4559 70.3138 10.9679 70.3138 10.359C70.3138 9.75011 70.1366 9.26657 69.7822 8.90839C69.4369 8.54126 68.9917 8.35769 68.4465 8.35769C67.9013 8.35769 67.4516 8.54126 67.0972 8.90839C66.7428 9.26657 66.5656 9.75011 66.5656 10.359C66.5656 10.9679 66.7428 11.4559 67.0972 11.8231C67.4516 12.1812 67.9013 12.3603 68.4465 12.3603Z" fill="#2A3848"/>
</svg>
