<svg width="40" height="40" viewBox="0 0 40 40" fill="none" xmlns="http://www.w3.org/2000/svg">
<g clip-path="url(#clip0)">
<path d="M6.84842 25.6363H5.59592C3.86655 25.6363 2.4646 24.2343 2.4646 22.505C2.4646 21.4673 3.30577 20.6262 4.34335 20.6262H6.84842V25.6363Z" fill="#E3635E"/>
<path d="M37.1686 6.48168L31.6395 0.952856C31.4046 0.717935 31.086 0.58606 30.7539 0.58606H7.47491C6.78319 0.58606 6.22241 1.14684 6.22241 1.83856V21.4063L7.47491 39.4141H36.2829C36.9746 39.4141 37.5354 38.8533 37.5354 38.1616V7.36739C37.5355 7.0352 37.4035 6.71661 37.1686 6.48168Z" fill="white"/>
<path d="M37.5351 7.36739C37.5351 7.0352 37.4031 6.71661 37.1682 6.48168L31.6391 0.952856C31.4042 0.717935 31.0856 0.58606 30.7535 0.58606H30.6462V6.84864C30.6462 7.1945 30.9266 7.47489 31.2725 7.47489H37.5351V7.36739Z" fill="white"/>
<path d="M23.7574 24.3838H4.34335C3.30569 24.3838 2.4646 23.5426 2.4646 22.5051V33.7777C2.4646 34.8154 3.30577 35.6565 4.34335 35.6565H23.7574C24.4491 35.6565 25.0099 35.0957 25.0099 34.404V25.6363C25.0099 24.9445 24.4491 24.3838 23.7574 24.3838Z" fill="#E3635E"/>
<path d="M4.34335 35.6565H23.7574C24.4491 35.6565 25.0099 35.0957 25.0099 34.404V33.7777H5.59585C4.90522 33.7777 4.34335 33.2158 4.34335 32.5252V24.3838C3.30569 24.3838 2.4646 23.5426 2.4646 22.5051V33.7777C2.46452 34.8153 3.30569 35.6565 4.34335 35.6565Z" fill="#E3635E"/>
<path d="M37.5826 6.06734L32.0535 0.538437C31.7062 0.19125 31.2446 0 30.7535 0H7.4746C6.46093 0 5.63616 0.824766 5.63616 1.83844V20.0403H4.34335C2.98429 20.0403 1.87866 21.146 1.87866 22.505V33.7777C1.87866 35.1367 2.98429 36.2424 4.34335 36.2424H23.7574C24.7712 36.2424 25.5959 35.4177 25.5959 34.404V25.6364C25.5959 24.6227 24.7711 23.7979 23.7574 23.7979H4.34335C3.63046 23.7979 3.05054 23.218 3.05054 22.5051C3.05054 21.7922 3.63046 21.2123 4.34335 21.2123H5.63616V21.8791C5.63616 22.2027 5.89851 22.465 6.2221 22.465C6.54569 22.465 6.80804 22.2027 6.80804 21.8791V1.83844C6.80804 1.47086 7.1071 1.17188 7.4746 1.17188H30.0603V6.84852C30.0603 7.51695 30.6041 8.06078 31.2725 8.06078H36.9491V38.1616C36.9491 38.5291 36.6501 38.8281 36.2826 38.8281H7.4746C7.10702 38.8281 6.80804 38.5291 6.80804 38.1616C6.80804 37.838 6.54569 37.5756 6.2221 37.5756C5.89851 37.5756 5.63616 37.838 5.63616 38.1616C5.63616 39.1753 6.46093 40 7.4746 40H36.2826C37.2963 40 38.121 39.1752 38.121 38.1616V7.36734C38.1211 6.87633 37.9298 6.41461 37.5826 6.06734ZM4.34335 24.9698H23.7574C24.125 24.9698 24.424 25.2688 24.424 25.6364V34.4041C24.424 34.7716 24.1249 35.0706 23.7574 35.0706H4.34335C3.63046 35.0706 3.05054 34.4906 3.05054 33.7777V24.6027C3.42655 24.8355 3.86952 24.9698 4.34335 24.9698ZM31.2322 6.84852V1.37445L36.7468 6.88891H31.2725C31.2503 6.88891 31.2322 6.87078 31.2322 6.84852Z" fill="#2A3848"/>
<path d="M18.4819 33.0929C18.8055 33.0929 19.0679 32.8305 19.0679 32.5069V30.5591H20.3375C20.661 30.5591 20.9234 30.2967 20.9234 29.9731C20.9234 29.6495 20.661 29.3872 20.3375 29.3872H19.0679V28.1194H20.4976C20.8212 28.1194 21.0835 27.8571 21.0835 27.5335C21.0835 27.2098 20.8212 26.9476 20.4976 26.9476H18.4819C18.1583 26.9476 17.896 27.2098 17.896 27.5335V32.5069C17.896 32.8305 18.1583 33.0929 18.4819 33.0929Z" fill="white"/>
<path d="M12.3234 32.867C12.4331 32.976 12.5816 33.0371 12.7362 33.0371H12.7384C12.78 33.0369 13.7616 33.0332 14.1537 33.0263C15.6016 33.001 16.6526 31.7368 16.6526 30.0202C16.6526 28.2158 15.6281 27.0034 14.1033 27.0034H12.7263C12.5707 27.0034 12.4216 27.0652 12.3116 27.1754C12.2017 27.2855 12.1401 27.4348 12.1404 27.5904V27.5942V27.5943V32.3722C12.1404 32.4124 12.1444 32.4517 12.1522 32.4897C12.1616 32.6318 12.2217 32.7662 12.3234 32.867ZM14.1033 28.1752C15.1189 28.1752 15.4807 29.1283 15.4807 30.0202C15.4807 31.2712 14.804 31.843 14.1333 31.8546C13.9469 31.8579 13.6143 31.8605 13.3201 31.8623C13.3182 31.2874 13.3143 28.7732 13.3133 28.1752H14.1033Z" fill="white"/>
<path d="M7.45654 33.111C7.78013 33.111 8.04248 32.8488 8.04248 32.5251V30.9317C8.33341 30.9301 8.66419 30.9286 8.85154 30.9286C9.9695 30.9286 10.879 30.0316 10.879 28.9289C10.879 27.8261 9.9695 26.929 8.85154 26.929H7.45654C7.30084 26.929 7.15154 26.991 7.04154 27.1013C6.93201 27.2111 6.87068 27.36 6.87068 27.515H6.87061V32.525C6.87061 32.8488 7.13295 33.111 7.45654 33.111ZM8.85154 28.101C9.31537 28.101 9.70716 28.4802 9.70716 28.9289C9.70716 29.3777 9.31537 29.7568 8.85154 29.7568C8.66544 29.7568 8.3388 29.7583 8.04896 29.7598C8.0474 29.4605 8.04506 28.4142 8.0442 28.101H8.85154V28.101Z" fill="white"/>
<path d="M18.4332 16.9893C16.9931 17.4438 15.5151 18.073 14.7267 18.8868C14.0761 19.5583 13.9582 20.3373 14.4031 21.0243C14.7051 21.4905 15.1202 21.7341 15.5869 21.7341C15.766 21.7341 15.9528 21.6982 16.1437 21.6252C16.8322 21.3619 17.5758 20.613 18.417 19.3354C18.6885 18.923 18.9634 18.4646 19.2371 17.9687C19.3367 17.9394 19.4383 17.9103 19.5422 17.8812C21.1958 17.4186 23.0666 17.0828 24.7084 16.9425C25.7093 17.9103 26.7438 18.6644 27.6258 18.8701C28.596 19.0964 29.3652 18.6527 29.683 17.6832C29.8754 17.0959 29.6538 16.5422 29.0901 16.2019C28.5106 15.852 27.5035 15.683 26.0975 15.6991C25.798 15.7026 25.482 15.7148 25.153 15.7351C24.5214 15.0837 23.8642 14.3052 23.2313 13.4455C22.741 12.7794 22.3027 12.113 21.9321 11.4794C21.9724 11.3406 22.0107 11.2037 22.047 11.0691C22.4476 9.58374 22.5905 8.44647 22.4716 7.68882C22.3 6.59467 21.5938 6.43928 21.2982 6.42335C20.2916 6.36889 19.6135 6.87678 19.4845 7.78186C19.382 8.50085 19.6238 9.49007 20.2031 10.7219C20.3409 11.0148 20.4953 11.3166 20.6649 11.6248C20.6017 11.8276 20.5332 12.0386 20.459 12.2582C19.9188 13.8562 19.1873 15.5589 18.4332 16.9893ZM15.6194 20.5591C15.5776 20.5644 15.5071 20.5732 15.3867 20.3872C15.2886 20.2358 15.2833 20.1216 15.367 19.9656C15.5626 19.6009 16.2305 19.0892 17.5229 18.5606C16.6209 19.9597 15.9467 20.5183 15.6194 20.5591ZM28.5791 17.2784C28.5782 17.2857 28.5759 17.2987 28.5694 17.3183C28.423 17.7649 28.2264 17.807 27.8919 17.729C27.4837 17.6337 26.9651 17.3321 26.3866 16.8705C27.9529 16.883 28.4993 17.1651 28.5791 17.2784ZM20.6446 7.94733C20.6685 7.77983 20.6953 7.59147 21.1411 7.59147C21.1691 7.59147 21.1989 7.59225 21.2303 7.59374C21.3638 7.75631 21.4324 8.47967 21.1237 9.91124C20.76 9.07725 20.5823 8.38444 20.6446 7.94733ZM21.4605 12.9476C21.7177 13.3429 21.9944 13.742 22.2876 14.1403C22.7082 14.7117 23.1834 15.3049 23.6859 15.8712C23.1045 15.9413 22.5048 16.0319 21.9049 16.1408C21.499 16.2144 20.7913 16.3534 19.9628 16.5601C20.1466 16.1791 20.3277 15.7841 20.505 15.378C20.8573 14.5711 21.1814 13.7454 21.4605 12.9476Z" fill="#2A3848"/>
</g>
<defs>
<clipPath id="clip0">
<rect width="40" height="40" fill="white"/>
</clipPath>
</defs>
</svg>
