<svg width="54" height="44" viewBox="0 0 54 44" fill="none" xmlns="http://www.w3.org/2000/svg">
<path d="M21.9534 0C21.6839 0.0591011 21.3943 0.206854 21.1048 0.391545C20.9551 0.480196 20.8153 0.583623 20.6656 0.68705C20.5158 0.790477 20.376 0.901292 20.2363 1.00472C20.8552 0.790478 21.3943 0.494972 21.9534 0Z" fill="#EBD993" fill-opacity="0.3"/>
<path d="M20.2263 1.01211C20.2263 1.01211 20.2263 1.01949 20.2163 1.01949C20.2263 1.01211 20.2263 1.01211 20.2363 1.00472L20.2263 1.01211Z" fill="#EBD993" fill-opacity="0.3"/>
<path d="M53.2812 30.7474C53.0216 30.7326 52.7321 30.7252 52.4326 30.7178C52.7221 30.7326 53.0017 30.7474 53.2812 30.7474Z" fill="#EBD993" fill-opacity="0.3"/>
<path d="M2.54576 31.427L2.96506 31.2276C3.16473 31.3605 3.33444 31.4714 3.45424 31.5452C3.48419 31.5674 3.51414 31.5822 3.53411 31.5969C3.55408 31.6117 3.57404 31.6265 3.59401 31.6413C3.63394 31.6708 3.66389 31.693 3.68386 31.7152C3.73378 31.7595 3.75374 31.789 3.76373 31.826C3.77371 31.8555 3.77371 31.8851 3.77371 31.9146C3.77371 31.9663 3.77371 32.018 3.83361 32.0771C3.89351 32.1362 4.02329 32.2027 4.21298 32.2397C4.40266 32.1436 4.54243 32.1067 4.67221 32.1067C4.802 32.1067 4.90183 32.1436 5.01165 32.1953C5.12146 32.2397 5.21131 32.3062 5.32113 32.3357C5.37105 32.3505 5.43095 32.3579 5.49085 32.3505C5.55075 32.3431 5.62063 32.3209 5.69052 32.284C5.6406 32.3357 5.97005 32.4022 5.74043 32.6164C5.98003 32.4391 6.09983 32.4318 6.19967 32.4539C6.24958 32.4687 6.2995 32.4909 6.34942 32.5056C6.40932 32.5204 6.45923 32.5352 6.55907 32.5056C6.76872 32.3948 6.58902 32.38 6.64892 32.2471C6.64892 32.2471 6.68885 32.2397 6.75874 32.2323C6.82862 32.2175 6.92845 32.2027 7.02829 32.188C7.22795 32.151 7.41764 32.1215 7.41764 32.1215C7.44759 32.1584 7.45757 32.2027 7.45757 32.2471C7.45757 32.2914 7.4376 32.3431 7.40765 32.3874C7.3777 32.4318 7.32779 32.4761 7.26789 32.5056C7.20799 32.5426 7.1381 32.5647 7.05824 32.5721C7.14809 32.5943 7.28785 32.6017 7.44759 32.6238C7.52745 32.6312 7.60732 32.6386 7.70715 32.6534C7.75707 32.6608 7.797 32.6608 7.84692 32.6682C7.89684 32.6755 7.95674 32.6755 8.01664 32.6755C8.13644 32.6755 8.25624 32.6829 8.38602 32.6829C8.45591 32.6829 8.51581 32.6829 8.58569 32.6903C8.65557 32.6903 8.71547 32.6977 8.80532 32.6903C8.97504 32.6829 9.14476 32.6682 9.32446 32.6534C9.41431 32.646 9.50416 32.6386 9.59401 32.6386C9.64393 32.6386 9.68386 32.6312 9.73378 32.6312C9.78369 32.6238 9.84359 32.6164 9.90349 32.6017C10.1331 32.5647 10.3627 32.5278 10.5923 32.4835C10.7121 32.4613 10.8319 32.4465 10.9517 32.4244C11.0915 32.3874 11.2413 32.3357 11.391 32.2988C11.6905 32.2101 11.99 32.1215 12.2995 32.0254C12.4393 32.0033 12.6489 31.8851 12.8386 31.7964C13.0283 31.7078 13.228 31.6117 13.4276 31.5157C13.6273 31.4196 13.827 31.331 14.0166 31.235C14.1165 31.1832 14.2163 31.1389 14.3161 31.0872C14.426 31.0281 14.5358 30.9616 14.6456 30.9025C15.0948 30.6513 15.5441 30.3928 15.9933 30.1416L16.3328 29.9495L16.6822 29.75C16.9118 29.6171 17.1414 29.4841 17.381 29.3437C17.8503 29.0704 18.3195 28.797 18.7787 28.5311C19.7171 27.977 20.6656 27.4229 21.604 26.8762C22.0732 26.6029 22.5424 26.3222 23.0017 26.0636C23.4609 25.7976 23.9201 25.5317 24.3694 25.2731C24.8186 25.0072 25.2679 24.7634 25.7072 24.5122C26.1464 24.2684 26.5757 24.0246 27.005 23.7808C27.4343 23.5518 27.8436 23.3228 28.2629 23.1012C28.6722 22.8795 29.0715 22.6579 29.4709 22.4584C29.8602 22.259 30.2496 22.0595 30.619 21.8674C30.8087 21.7714 30.9884 21.6753 31.1681 21.5867C31.3478 21.498 31.5374 21.4094 31.7072 21.3281C32.0666 21.1582 32.406 20.9883 32.7354 20.8332C32.9052 20.7519 33.0649 20.678 33.2246 20.5967C33.2945 20.5598 33.3744 20.5303 33.4443 20.4933C33.4842 20.4785 33.5141 20.4638 33.5541 20.4416C33.8336 20.316 34.0832 20.1978 34.3028 20.0944C34.5225 19.991 34.7121 19.9023 34.8619 19.8284C34.6323 19.8137 34.3328 19.9097 34.0433 20.0131C33.7438 20.1092 33.4443 20.1904 33.1747 20.1239C33.4542 19.8949 33.7138 19.7989 33.9235 19.7176C34.1331 19.6437 34.3028 19.5846 34.3827 19.4369C34.6822 19.592 35.0715 19.4517 35.4908 19.3113C35.7005 19.2448 35.9201 19.1709 36.1398 19.1266C36.3594 19.0897 36.579 19.0823 36.7787 19.1414L36.7987 18.8237L37.2379 18.8385C37.5874 18.6686 37.8669 18.5356 38.0865 18.4322C38.3062 18.3287 38.4559 18.2549 38.5757 18.2032C38.8053 18.0923 38.8852 18.0628 38.9451 18.0406C39.015 18.0258 39.0749 18.0185 39.2945 17.9667C39.4043 17.9446 39.5441 17.9076 39.7537 17.8485C39.8536 17.819 39.9734 17.7894 40.1032 17.7525C40.2329 17.7156 40.3827 17.6786 40.5524 17.6269C40.7421 17.5604 40.9218 17.5013 41.0815 17.4348C41.2413 17.3757 41.401 17.3166 41.5408 17.2575C41.8203 17.1393 42.0699 17.0137 42.2995 16.9177C42.5291 16.8143 42.7388 16.7256 42.9484 16.6591C43.1581 16.5926 43.3777 16.5483 43.6073 16.5335C43.4775 16.5631 43.0582 16.4818 43.4476 16.3193C43.5275 16.4301 43.787 16.3193 44.0666 16.2233C44.3461 16.1272 44.6356 16.0238 44.7754 16.1198C44.8253 16.1051 44.8852 16.0903 44.9651 16.0755C44.975 16.0755 44.975 16.0755 44.985 16.0681H44.995C44.9351 15.8687 44.8353 15.5436 44.7754 15.3367C44.7255 15.1594 44.6755 14.9821 44.6256 14.8048L44.5957 14.6719L44.5657 14.5684C44.5458 14.5019 44.5358 14.4355 44.5158 14.369C44.4859 14.2508 44.4559 14.1252 44.4359 13.9996L44.406 13.8371L44.396 13.7558L44.386 13.7189L44.376 13.6893C44.3561 13.6007 44.3461 13.5194 44.3361 13.4307C44.2862 13.1205 44.2862 12.884 44.2962 12.7141C44.3161 12.3743 44.396 12.2709 44.406 12.2339C44.416 12.2118 44.426 12.2044 44.426 12.2118C44.426 12.2118 44.426 12.2192 44.416 12.2265C44.416 12.2339 44.416 12.2339 44.406 12.2413C44.406 12.2487 44.406 12.2487 44.396 12.2635C44.396 12.2561 44.406 12.2413 44.416 12.2265C44.426 12.2192 44.4359 12.197 44.4359 12.197C44.4359 12.1896 44.4559 12.1748 44.4459 12.1822C44.4359 12.1674 44.4759 12.2118 44.416 12.1527L44.4659 12.1896C44.4759 12.1896 44.4859 12.2044 44.4759 12.197C44.4659 12.197 44.4559 12.197 44.4359 12.1896C44.426 12.1896 44.426 12.1822 44.416 12.1822L44.406 12.1896C44.396 12.197 44.386 12.197 44.376 12.2044C44.3661 12.2118 44.3461 12.2192 44.3361 12.2265C44.3161 12.2339 44.3062 12.2413 44.2862 12.2487C44.2463 12.2635 44.2163 12.2709 44.1664 12.293C44.0865 12.3152 43.9867 12.3448 43.9168 12.3521C43.8369 12.3669 43.787 12.3743 43.7671 12.3743C43.7471 12.3743 43.777 12.3743 43.8469 12.3595C43.8769 12.3521 43.9368 12.3448 43.9867 12.33C44.0166 12.3226 44.0466 12.3152 44.0765 12.3078C44.1065 12.3004 44.1364 12.293 44.1664 12.2857C44.0266 12.33 43.827 12.3669 43.6073 12.3965C43.3877 12.426 43.1381 12.4334 42.9085 12.4334C42.6789 12.4334 42.4692 12.426 42.3095 12.4112C42.2696 12.4112 42.2396 12.4039 42.1997 12.4039H42.1797L40.3827 12.1083L40.3627 12.1231L40.3228 12.1453C40.2729 12.1748 40.223 12.2044 40.183 12.2339C40.183 12.2339 40.223 12.2118 40.2829 12.1748C40.3028 12.1674 40.3128 12.1527 40.3328 12.1453C40.3428 12.1379 40.3527 12.1379 40.3627 12.1305L40.3827 12.1157C40.9817 12.2118 41.5807 12.3078 42.1897 12.4112C42.2396 12.4186 42.2895 12.4186 42.3594 12.426C42.4892 12.4334 42.6389 12.4408 42.7587 12.4482C42.8186 12.4482 42.8686 12.4482 42.9085 12.4482C42.9484 12.4482 42.9684 12.4482 42.9684 12.4482C42.8586 12.4482 42.7587 12.4482 42.6589 12.4408C42.609 12.4408 42.5591 12.4334 42.5191 12.4334C42.4792 12.4334 42.4293 12.426 42.3894 12.426C42.3494 12.426 42.3195 12.4186 42.2795 12.4186L42.2296 12.4112H42.1897C42.579 12.4777 38.7854 11.8572 40.3927 12.1157L40.3827 12.1231C40.3328 12.1527 40.2829 12.1822 40.2429 12.2118L40.173 12.2561L40.1331 12.2783L40.1131 12.2857L40.1032 12.293C40.1032 12.293 40.0932 12.293 40.0932 12.2857C40.0433 12.2635 39.9933 12.2413 39.9534 12.2118C39.9035 12.1896 39.8636 12.1601 39.8236 12.1379C39.8136 12.1305 39.7937 12.1305 39.7837 12.1231L39.7338 12.1157C39.7038 12.1083 39.6739 12.101 39.6439 12.101C39.5241 12.0788 39.4243 12.0492 39.2646 12.0197C39.2346 12.0123 39.2546 12.0197 39.2446 12.0123C39.2446 12.0123 39.2446 12.0123 39.2346 12.0123C39.2246 12.0123 39.2246 12.0197 39.2146 12.0197C39.2047 12.0271 39.1947 12.0345 39.1847 12.0419C39.1547 12.0714 39.1148 12.1231 39.0849 12.2118C39.0749 12.2487 39.0549 12.3004 39.0449 12.3521C39.0449 12.3817 39.0349 12.4112 39.0349 12.4408C39.0349 12.4703 39.0349 12.5073 39.025 12.5442C39.025 12.5442 39.0449 12.5294 39.0849 12.5147C39.1148 12.4999 39.1547 12.4777 39.1947 12.463C39.2346 12.4408 39.2745 12.426 39.3045 12.4112C39.3344 12.3965 39.3544 12.3891 39.3544 12.3891C39.2446 12.5516 39.0849 12.7585 38.8852 12.9358C38.6755 13.1057 38.426 13.246 38.1364 13.2756C38.1364 13.2756 38.1664 13.2313 38.2063 13.1722C38.2463 13.1131 38.2962 13.0318 38.3561 12.9505C38.406 12.8767 38.4459 12.8028 38.4859 12.7511C38.5158 12.6994 38.5358 12.6698 38.5358 12.6698C38.3361 12.8988 38.1564 13.1057 37.9867 13.2978C37.807 13.5046 37.6373 13.7041 37.4775 13.9035C37.1681 14.2951 36.8885 14.6792 36.599 15.1447L36.8785 14.8565C36.579 15.4771 35.1913 17.2058 33.8336 18.9862C33.1547 19.8801 32.4859 20.7814 31.9667 21.5424C31.4476 22.3033 31.0782 22.9312 30.9684 23.2415L31.6572 22.8869C31.6572 22.8869 31.5275 23.1381 31.3977 23.3967C31.3378 23.5223 31.2679 23.6478 31.218 23.7439C31.1681 23.8399 31.1381 23.9064 31.1381 23.9064C31.228 23.803 30.5591 23.0421 30.7288 22.9977C30.6289 23.1233 30.4992 23.2785 30.3594 23.4558C30.2097 23.6405 30.0499 23.8547 29.8602 24.0985C29.4809 24.5713 29.0516 25.1623 28.5624 25.8198C28.3228 26.1523 28.0832 26.5069 27.8236 26.8689C27.6938 27.0462 27.574 27.2382 27.4443 27.4303C27.3145 27.6224 27.1847 27.8145 27.0549 28.0139C26.995 28.1026 26.9151 28.2208 26.8053 28.3833C26.7055 28.5459 26.6156 28.701 26.5158 28.8635C26.3261 29.1812 26.1265 29.5062 25.9268 29.8313C25.827 29.9938 25.7271 30.1564 25.6273 30.3189C25.5275 30.4814 25.4576 30.6439 25.3677 30.8139C25.198 31.1389 25.0183 31.4714 24.8486 31.7964L24.589 32.2914C24.5691 32.3357 24.5391 32.3727 24.5291 32.417L24.4792 32.5352L24.3794 32.779C24.2496 33.104 24.1298 33.4217 24 33.7394C23.8802 34.057 23.7304 34.3821 23.6606 34.6776C23.6206 34.8327 23.5807 34.9805 23.5507 35.1282C23.5208 35.276 23.4809 35.4237 23.4609 35.5641C23.4309 35.7045 23.411 35.8522 23.391 35.9926C23.371 36.133 23.3611 36.2659 23.3511 36.4063C23.3411 36.5393 23.3311 36.6723 23.3211 36.8052C23.3211 36.9382 23.3111 37.0638 23.3211 37.1894C23.3311 37.6991 23.401 38.1646 23.5108 38.6004C23.6206 39.0363 23.7903 39.4278 23.98 39.7825C24.1697 40.1371 24.3993 40.4621 24.6789 40.7502C24.8186 40.8906 24.9584 41.0236 25.1082 41.1418C25.2579 41.26 25.3977 41.3634 25.5275 41.4521C25.797 41.6294 26.0366 41.755 26.2063 41.851C26.4759 42.0135 26.6057 42.1022 26.6456 42.1687C26.6855 42.2352 26.6256 42.2647 26.5358 42.2869C26.4459 42.3016 26.3161 42.3016 26.2163 42.2943C26.1065 42.2869 26.0266 42.2795 26.0067 42.2795C26.406 42.4272 26.6556 42.4716 26.8353 42.5011C27.015 42.5233 27.1148 42.5233 27.2047 42.5159C27.2945 42.5159 27.3744 42.5085 27.5141 42.5307C27.6539 42.5454 27.8436 42.5898 28.1631 42.6562C28.3228 42.708 28.2629 42.7523 28.1331 42.7818C28.0033 42.8114 27.8037 42.8188 27.6839 42.8114C27.9834 42.8631 28.2529 42.9296 28.4725 42.9665C28.6922 43.0035 28.8519 43.0182 28.9218 42.9665C28.5824 42.8631 28.5524 42.7523 28.6023 42.6415C28.6423 42.5233 28.7521 42.4051 28.6922 42.2869C28.6922 42.2869 28.792 42.309 28.9517 42.3238C29.1115 42.346 29.3311 42.3755 29.5408 42.3977C29.7604 42.4198 30 42.4346 30.1697 42.4494C30.3394 42.4642 30.4592 42.4716 30.4592 42.4716L30.2296 42.671C30.2596 42.671 30.2795 42.671 30.3195 42.671C30.3494 42.671 30.3894 42.6636 30.4293 42.6562C30.5092 42.6415 30.589 42.6193 30.6889 42.5971C30.8785 42.5454 31.1181 42.4789 31.3977 42.4198C31.6872 42.346 32.0166 42.2647 32.396 42.2056C32.4459 42.1982 32.4958 42.1908 32.5458 42.1834C32.5957 42.176 32.6456 42.1687 32.7055 42.1539C32.8153 42.1391 32.9251 42.1169 33.0349 42.1096C33.1448 42.0948 33.2646 42.08 33.3844 42.0726C33.4443 42.0652 33.5042 42.0652 33.574 42.0578C33.6339 42.0505 33.7038 42.0431 33.7737 42.0357C34.0033 42.0061 34.2329 41.9766 34.4626 41.947C34.6922 41.9175 34.9318 41.8732 35.1714 41.8362C35.6406 41.7623 36.1298 41.6737 36.619 41.585C37.5973 41.4003 38.5957 41.1861 39.594 40.9645C40.4326 40.7798 41.2612 40.5951 42.0899 40.4104C42.6789 40.2848 43.2479 40.1666 43.807 40.0632C43.817 40.1814 43.3777 40.3439 42.9284 40.5138C43.2279 40.4547 43.6772 40.3291 43.9767 40.3587C43.3777 40.2627 44.8453 40.041 44.406 40.041C45.1248 39.6495 46.0233 39.4722 46.8918 39.3614C47.7504 39.2432 48.5691 39.1841 49.188 38.9698C49.198 38.859 49.3178 38.3271 49.5275 37.5883C49.6373 37.2189 49.7671 36.7978 49.9268 36.3472C50.0865 35.9039 50.2662 35.4311 50.4659 34.9583C50.6656 34.4855 50.8852 34.0201 51.1048 33.5768C51.3245 33.1336 51.5541 32.7199 51.7537 32.3579C52.1631 31.6265 52.4825 31.1094 52.4925 30.9838C53.1514 31.0133 53.8103 31.0872 54 31.1389C53.9201 31.0724 53.5607 30.9985 53.1314 30.9468C52.7022 30.9025 52.203 30.8803 51.8636 30.9099L51.7338 31.1832C51.5441 31.1906 51.3844 31.198 51.2745 31.198C51.1547 31.198 51.0749 31.198 51.005 31.1906C50.8752 31.1832 50.8353 31.1611 50.7854 31.1315C50.7454 31.1094 50.6955 31.0798 50.5757 31.0576C50.4459 31.0355 50.2463 31.0281 49.8669 31.0429C49.8469 30.9838 49.9068 30.9394 50.0466 30.9025C50.1864 30.8656 50.386 30.8286 50.6356 30.8065C51.1248 30.7548 51.7937 30.7474 52.4326 30.7621C51.3045 30.6883 50.1764 30.5479 49.7471 30.8139C49.4875 30.7991 49.3677 30.7769 49.3078 30.7474C49.2479 30.7178 49.2579 30.6809 49.2479 30.6513C49.2479 30.5848 49.218 30.511 48.589 30.4962C48.3694 30.5257 48.1398 30.5701 47.9002 30.6144C47.6606 30.6587 47.421 30.7178 47.1714 30.7621C46.9218 30.8065 46.6722 30.8508 46.4226 30.8877C46.173 30.9173 45.9235 30.9394 45.6839 30.9321L45.6938 30.8877C44.5258 30.9173 43.7171 31.1389 42.9484 31.3605C42.1897 31.5822 41.4809 31.8112 40.5324 31.8851L40.7022 31.7743C40.3627 31.7743 39.8935 31.8851 39.3744 32.0107C39.1148 32.0698 38.8453 32.1362 38.5657 32.1953C38.426 32.2249 38.2862 32.2471 38.1464 32.2692L38.0366 32.284H38.0266C38.0266 32.284 38.0266 32.284 38.0266 32.2766C38.0266 32.2692 38.0166 32.2618 38.0166 32.2544C38.0266 32.2692 38.0366 32.2914 38.0366 32.3062C38.0366 32.3209 38.0466 32.3283 38.0466 32.3431C38.0466 32.3505 38.0666 32.3505 38.0666 32.3579C38.0765 32.3653 38.0865 32.3653 38.0865 32.3727C38.0965 32.38 38.0965 32.3948 38.0965 32.4096C38.0965 32.417 38.0865 32.4244 38.0765 32.4318C38.0765 32.4391 38.0765 32.4391 38.0765 32.4465C38.0865 32.4687 38.0865 32.4835 38.0765 32.4909C38.0266 32.4318 38.0067 32.4318 37.9867 32.4318C37.9667 32.4318 37.9468 32.4244 37.9567 32.3357C37.9567 32.3357 37.9368 32.3948 37.9168 32.4613C37.8869 32.5278 37.8569 32.5869 37.8569 32.5869C37.797 32.5869 37.6872 32.6312 37.4975 32.6682C37.4476 32.6755 37.3977 32.6829 37.3478 32.6682C37.2978 32.6534 37.2679 32.6312 37.2579 32.6017C37.218 32.5426 37.208 32.4761 37.218 32.4022C37.218 32.3283 37.2379 32.2471 37.2579 32.1584C37.2679 32.1141 37.2879 32.0698 37.2978 32.0254L37.3078 31.9885V31.9737C37.3078 31.9737 37.3078 31.9737 37.3178 31.9663C37.3378 31.9368 37.3577 31.9072 37.3777 31.8777C37.4975 31.693 37.6073 31.5157 37.7271 31.3384C37.9468 30.9912 38.1864 30.6513 38.406 30.341C38.6156 30.0234 38.8353 29.7279 39.0349 29.4545C39.4243 28.9078 39.7837 28.4572 40.0433 28.1248L40.0033 28.243C40.782 27.2309 41.8303 25.9528 43.0682 24.5417C44.3062 23.1233 45.7338 21.5645 47.1814 19.9614C47.5408 19.5551 47.9101 19.1562 48.2695 18.7498C48.4493 18.543 48.6389 18.3361 48.8186 18.1293C49.0183 17.9076 49.228 17.6639 49.4476 17.3905C49.8869 16.8512 50.3661 16.2011 50.7754 15.4106C50.8253 15.3072 50.8752 15.2112 50.9251 15.1077C50.975 15.0043 51.015 14.8935 51.0649 14.7901C51.1148 14.6866 51.1547 14.5684 51.1947 14.4576L51.2546 14.2877C51.2745 14.2212 51.3045 14.1399 51.3245 14.0735L51.4143 13.741L51.4243 13.6967C51.4343 13.6376 51.4443 13.5859 51.4542 13.5342L51.4842 13.4012V13.3864L51.4942 13.3569L51.5241 13.1796C51.5341 13.0983 51.5441 13.017 51.5541 12.9284C51.5641 12.8397 51.5641 12.7585 51.5641 12.6698C51.5641 12.5738 51.5641 12.4925 51.5641 12.3965C51.5541 12.0197 51.5042 11.5912 51.3344 11.0889C51.3145 11.0224 51.2945 10.9633 51.2646 10.8968C51.2446 10.8303 51.2146 10.7638 51.1847 10.6973C51.1547 10.6308 51.1248 10.5643 51.0948 10.4978C51.0549 10.424 51.025 10.3575 50.985 10.2836C50.9451 10.2097 50.9052 10.1432 50.8552 10.0694C50.8053 9.99548 50.7554 9.9216 50.7055 9.84773C50.6057 9.70736 50.4759 9.54483 50.3461 9.39708L50.2463 9.28627L50.1364 9.17545C50.0666 9.10158 49.9867 9.0277 49.9068 8.95382L49.8469 8.90211L49.7671 8.83562C49.7072 8.78391 49.6373 8.73219 49.5774 8.68048C49.4476 8.57705 49.3178 8.48101 49.178 8.38497L49.0882 8.32587L49.0582 8.30371L49.0183 8.28155L48.7587 8.12641L48.6389 8.05992L48.4792 7.97865C48.3694 7.92694 48.2695 7.87523 48.1597 7.82351C47.9401 7.72747 47.7205 7.63882 47.4908 7.55756C47.2712 7.48368 47.0416 7.4098 46.822 7.3507C46.7121 7.32115 46.6123 7.29899 46.5025 7.26944C46.3927 7.24728 46.2829 7.21773 46.183 7.20295C46.0832 7.18079 45.9834 7.16601 45.8835 7.15124L45.7338 7.12907L45.594 7.1143C44.8353 7.01826 44.2263 7.02565 43.7371 7.0552C43.2479 7.08475 42.8686 7.13646 42.5591 7.18079L42.3394 7.21773L42.1497 7.25467L41.98 7.28422L41.8702 7.30638C41.7205 7.34332 41.5707 7.37287 41.4309 7.40242C41.1414 7.46891 40.8519 7.5354 40.5724 7.5945C40.2928 7.66837 40.0233 7.73486 39.7637 7.80135C39.2346 7.93433 38.7454 8.08208 38.2862 8.21506C38.1265 8.22983 37.9667 8.24461 37.797 8.26677C37.6373 8.28894 37.4676 8.31849 37.2978 8.35542C36.9584 8.42191 36.599 8.49579 36.2596 8.59183C35.9101 8.68048 35.5707 8.77652 35.2313 8.87256C34.9018 8.9686 34.5824 9.06464 34.2829 9.13851C34.9817 9.01292 34.8419 9.22716 34.3328 9.38231C32.5757 9.95115 32.5557 10.0176 32.5258 10.0915C32.5058 10.1285 32.4958 10.1654 32.2762 10.2762C32.0566 10.3944 31.6173 10.5717 30.7987 10.9263C30.3295 11.1332 29.7005 11.4139 28.9418 11.7464C28.5724 11.9163 28.1631 12.0936 27.7338 12.2857C27.5241 12.3817 27.3045 12.4851 27.0749 12.5885C27.015 12.6107 26.9651 12.6403 26.9052 12.6624L26.8652 12.6846L26.8453 12.692L26.8552 12.6846L26.8752 12.6772L26.8652 12.6846C26.8353 12.6994 26.8153 12.7067 26.7854 12.7215C26.3661 12.921 25.8769 13.15 25.3877 13.379C24.9285 13.5933 24.5291 13.7853 24.2496 13.8962C23.9701 14.0144 23.8003 14.0587 23.7604 14.0217C23.2812 14.4946 23.0216 14.6719 22.822 14.7901C22.7221 14.8565 22.6323 14.9083 22.5025 14.9895C22.3827 15.0782 22.223 15.189 21.9734 15.3958L22.2329 15.1521C22.1531 15.2112 22.0632 15.2776 21.9734 15.3294C21.8735 15.3811 21.7637 15.4328 21.6339 15.4328C21.604 15.4328 21.5641 15.4254 21.5341 15.4106C21.5042 15.3958 21.4842 15.3737 21.4642 15.3441C21.4343 15.285 21.4542 15.2185 21.4842 15.1447C21.5441 15.0043 21.614 14.8639 21.6938 14.7162C21.8636 14.4281 22.0632 14.1399 22.2429 13.9035C22.3228 13.7853 22.4027 13.6819 22.4725 13.5785C22.5424 13.4824 22.5923 13.4012 22.6223 13.3421C22.6622 13.2756 22.6822 13.2239 22.6722 13.2017L22.5125 13.3125C22.4226 13.3051 22.4226 13.2682 22.4725 13.2091C22.5225 13.1574 22.6223 13.0835 22.7421 13.0096C22.9817 12.8545 23.3111 12.6772 23.5208 12.5221C23.0616 12.7289 22.7421 12.8249 22.5724 12.8323C22.3927 12.8471 22.3428 12.7732 22.3627 12.7215L22.5424 12.6624C22.5424 12.5959 22.4426 12.5147 22.4027 12.3817C22.3827 12.3152 22.3627 12.2339 22.3827 12.1453C22.3927 12.0566 22.4226 11.968 22.4825 11.8793L22.8319 11.8498C22.7521 11.7316 22.9018 11.5173 23.0715 11.3105C23.2512 11.111 23.4509 10.9263 23.5308 10.8155C23.6705 10.7047 23.8502 10.5865 24.0299 10.4757C24.0399 10.4683 24.0599 10.4535 24.0799 10.4461L24.1298 10.4092C24.1897 10.3649 24.2396 10.3131 24.2995 10.2688C24.4093 10.1728 24.5291 10.0767 24.6489 9.98071C24.8785 9.78863 25.1082 9.58177 25.3577 9.38231C26.3261 8.57705 27.3145 7.70531 28.1231 6.82618C28.1231 6.82618 28.5724 6.66365 29.0116 6.49374C29.2313 6.41247 29.4609 6.33121 29.6306 6.27211C29.8003 6.21301 29.9101 6.17607 29.9101 6.17607L30.0399 5.99138C30.0399 5.99138 29.7404 5.60722 29.2413 5.03837C28.7321 4.46952 28.0333 3.72337 27.2047 3.00677C26.376 2.29017 25.4176 1.61051 24.4093 1.18941C23.391 0.768315 22.3128 0.613174 21.2446 0.960393L21.0948 0.790477C21.0948 0.790477 20.9551 0.908679 20.8253 1.03427C20.6955 1.15247 20.5657 1.27806 20.5657 1.27806C19.807 1.78042 19.7371 2.18674 19.5774 2.01683L20.5058 1.26329C19.787 1.78781 20.1364 1.32978 20.2862 1.04166C19.9867 1.26329 19.6972 1.47753 19.4077 1.63267C19.3577 1.7952 19.5874 1.60312 19.7371 1.54402C19.5973 1.72132 19.4376 1.94295 19.2679 2.16458C19.0982 2.38621 18.8885 2.60045 18.629 2.76298C18.2895 3.0511 18.1897 3.01416 18.0898 2.98461C18.0399 2.96983 17.98 2.96244 17.8802 2.99199C17.7904 3.02893 17.6506 3.1102 17.4609 3.28011C17.2013 3.50913 16.9418 3.73076 16.6822 3.95978L16.2928 4.29961C16.1631 4.41042 16.0433 4.52862 15.9135 4.63944C15.6639 4.86846 15.4043 5.09747 15.1547 5.32649L15.0649 5.41514L14.8552 5.61461L14.7754 5.69587L14.6156 5.85101L13.9867 6.47896C13.5674 6.90006 13.1481 7.32115 12.7188 7.74225L12.3993 8.05992C12.2995 8.16334 12.1997 8.27416 12.0998 8.37759L11.5108 9.02031L10.3228 10.3131L10.173 10.4757L10.0333 10.6382L9.76373 10.9633L9.21464 11.6134C8.85524 12.0492 8.48586 12.4851 8.12646 12.9136C7.797 13.3421 7.46755 13.7706 7.1381 14.199L6.64892 14.8492C6.48918 15.0634 6.30948 15.285 6.16972 15.4919C5.8802 15.913 5.5807 16.3341 5.29118 16.7626C4.67221 17.6195 4.19301 18.4322 3.67388 19.2596C3.54409 19.4664 3.41431 19.6733 3.29451 19.8801C3.18469 20.0796 3.07487 20.2791 2.95507 20.4785C2.73544 20.8775 2.51581 21.2764 2.28619 21.6753C2.0366 21.8896 2.14642 21.7197 2.17637 21.5645C2.07654 21.7566 1.98669 21.9413 1.89684 22.126C1.82696 22.2959 1.75707 22.4732 1.68719 22.6431C1.54742 22.983 1.40765 23.3228 1.2579 23.6552C1.21797 23.7365 1.18802 23.8178 1.14809 23.9064L1.09817 24.032C1.0782 24.0689 1.05824 24.1133 1.04825 24.1502C0.998336 24.298 0.958402 24.4457 0.908485 24.5935C0.818635 24.889 0.728785 25.1771 0.648918 25.4652C0.628952 25.5908 0.608984 25.7164 0.579034 25.842C0.579034 25.9528 0.589018 26.0562 0.589018 26.167C0.38935 26.5955 0.159734 26.8245 0 27.0166C0.0399334 26.9723 0.0698829 27.0314 0.0898496 27.1865C0.099833 27.2604 0.109816 27.3564 0.109816 27.4746C0.109816 27.5042 0.109816 27.5337 0.109816 27.5633C0.119799 27.5855 0.129783 27.615 0.139766 27.6372C0.159733 27.6889 0.169717 27.7406 0.189683 27.7997C0.259567 28.0287 0.339434 28.3094 0.419301 28.6123C0.509151 28.9005 0.648918 29.1664 0.788685 29.4324C0.938435 29.6909 1.09817 29.9421 1.26789 30.1711C1.4376 30.4001 1.62729 30.607 1.797 30.7843C1.97671 30.9616 2.11647 31.102 2.27621 31.235C2.38602 31.3088 2.53577 31.4196 2.54576 31.427Z" fill="#EBD993" fill-opacity="0.3"/>
<g clip-path="url(#clip0)">
<path d="M43.4141 24.8074H30.7058C30.3822 24.8074 30.1199 25.0697 30.1199 25.3933V38.1119C30.1199 38.4355 30.3822 38.6978 30.7058 38.6978C34.2569 38.6978 37.5954 37.3139 40.1064 34.8009C42.6172 32.288 44 28.947 44 25.3933C44 25.0697 43.7377 24.8074 43.4141 24.8074ZM31.2917 37.5119V35.8893L31.3753 35.9728C31.4897 36.0873 31.6397 36.1444 31.7896 36.1444C31.9396 36.1444 32.0896 36.0873 32.2039 35.9728C32.4327 35.744 32.4327 35.373 32.2039 35.1441L31.2917 34.2319V31.3511L34.473 34.5324C34.5874 34.6468 34.7374 34.704 34.8873 34.704C35.0372 34.704 35.1872 34.6468 35.3016 34.5324C35.5304 34.3036 35.5304 33.9326 35.3016 33.7037L31.2917 29.6937V26.8129L34.0768 29.5981C34.1913 29.7125 34.3412 29.7697 34.4911 29.7697C34.6411 29.7697 34.7911 29.7124 34.9055 29.5981C35.1343 29.3692 35.1343 28.9982 34.9055 28.7694L32.1152 25.9791H34.996L39.0111 29.9942C39.1256 30.1086 39.2755 30.1658 39.4254 30.1658C39.5754 30.1658 39.7254 30.1085 39.8398 29.9942C40.0686 29.7653 40.0686 29.3943 39.8398 29.1655L36.6533 25.9791H39.5341L40.4515 26.8965C40.566 27.0109 40.7159 27.0681 40.8659 27.0681C41.0158 27.0681 41.1658 27.0109 41.2802 26.8965C41.509 26.6677 41.509 26.2966 41.2802 26.0678L41.1915 25.9791H42.8141C42.517 32.2041 37.5113 37.2145 31.2917 37.5119Z" fill="white"/>
<path d="M31.2917 37.5119V35.8893L31.3753 35.9728C31.4897 36.0873 31.6397 36.1444 31.7896 36.1444C31.9396 36.1444 32.0896 36.0873 32.2039 35.9728C32.4327 35.744 32.4327 35.373 32.2039 35.1441L31.2917 34.2319V31.3511L34.473 34.5324C34.5874 34.6468 34.7374 34.704 34.8873 34.704C35.0372 34.704 35.1872 34.6468 35.3016 34.5324C35.5304 34.3036 35.5304 33.9326 35.3016 33.7037L31.2917 29.6937V26.8129L34.0768 29.5981C34.1913 29.7125 34.3412 29.7697 34.4911 29.7697C34.6411 29.7697 34.7911 29.7124 34.9055 29.5981C35.1343 29.3692 35.1343 28.9982 34.9055 28.7694L32.1152 25.9791H34.996L39.0111 29.9942C39.1256 30.1086 39.2755 30.1658 39.4254 30.1658C39.5754 30.1658 39.7254 30.1085 39.8398 29.9942C40.0686 29.7653 40.0686 29.3943 39.8398 29.1655L36.6533 25.9791H39.5341L40.4515 26.8965C40.566 27.0109 40.7159 27.0681 40.8659 27.0681C41.0158 27.0681 41.1658 27.0109 41.2802 26.8965C41.509 26.6677 41.509 26.2966 41.2802 26.0678L41.1915 25.9791H42.8141C42.517 32.2041 37.5113 37.2145 31.2917 37.5119Z" fill="white"/>
<path d="M27.3045 12.1042C23.7508 12.1042 20.4098 13.4871 17.897 15.9979C15.384 18.5088 14 21.8474 14 25.3985C14 28.9495 15.384 32.2881 17.897 34.7991C20.4098 37.31 23.7508 38.6927 27.3045 38.6927C27.6281 38.6927 27.8904 38.4304 27.8904 38.1068V12.6902C27.8904 12.3666 27.6281 12.1042 27.3045 12.1042ZM26.7185 37.5069C20.2996 37.2005 15.1719 31.8866 15.1719 25.3985C15.1719 18.9104 20.2996 13.5965 26.7185 13.2901V37.5069Z" fill="white"/>
<path d="M26.7185 37.5069C20.2996 37.2005 15.1719 31.8866 15.1719 25.3985C15.1719 18.9104 20.2996 13.5965 26.7185 13.2901V37.5069Z" fill="white"/>
<path d="M30.4548 9.302V22.0103H43.1734C43.1734 14.9917 37.4791 9.302 30.4548 9.302V9.302Z" fill="white"/>
</g>
<g clip-path="url(#clip1)">
<path d="M43.4141 24.8074H30.7058C30.3822 24.8074 30.1199 25.0697 30.1199 25.3933V38.1119C30.1199 38.4355 30.3822 38.6978 30.7058 38.6978C34.2569 38.6978 37.5954 37.3139 40.1064 34.8009C42.6172 32.288 44 28.947 44 25.3933C44 25.0697 43.7377 24.8074 43.4141 24.8074V24.8074ZM31.2917 37.5119V35.8893L31.3753 35.9728C31.4897 36.0873 31.6397 36.1444 31.7896 36.1444C31.9396 36.1444 32.0896 36.0873 32.2039 35.9728C32.4327 35.744 32.4327 35.373 32.2039 35.1441L31.2917 34.2319V31.3511L34.473 34.5324C34.5874 34.6468 34.7374 34.704 34.8873 34.704C35.0372 34.704 35.1872 34.6468 35.3016 34.5324C35.5304 34.3036 35.5304 33.9326 35.3016 33.7037L31.2917 29.6937V26.8129L34.0768 29.5981C34.1913 29.7125 34.3412 29.7697 34.4911 29.7697C34.6411 29.7697 34.7911 29.7124 34.9055 29.5981C35.1343 29.3692 35.1343 28.9982 34.9055 28.7694L32.1152 25.9791H34.996L39.0111 29.9942C39.1256 30.1086 39.2755 30.1658 39.4254 30.1658C39.5754 30.1658 39.7254 30.1085 39.8398 29.9942C40.0686 29.7653 40.0686 29.3943 39.8398 29.1655L36.6533 25.9791H39.5341L40.4515 26.8965C40.566 27.0109 40.7159 27.0681 40.8659 27.0681C41.0158 27.0681 41.1658 27.0109 41.2802 26.8965C41.509 26.6677 41.509 26.2966 41.2802 26.0678L41.1915 25.9791H42.8141C42.517 32.2041 37.5113 37.2145 31.2917 37.5119V37.5119Z" fill="#2A3848"/>
<path d="M27.3045 12.1042C23.7508 12.1042 20.4098 13.4871 17.897 15.9979C15.384 18.5088 14 21.8474 14 25.3985C14 28.9495 15.384 32.2881 17.897 34.7991C20.4098 37.31 23.7508 38.6927 27.3045 38.6927C27.6281 38.6927 27.8904 38.4304 27.8904 38.1068V12.6902C27.8904 12.3666 27.6281 12.1042 27.3045 12.1042V12.1042ZM26.7185 37.5069C20.2996 37.2005 15.1719 31.8865 15.1719 25.3985C15.1719 18.9104 20.2996 13.5965 26.7185 13.2901V37.5069Z" fill="#2A3848"/>
<path d="M30.4548 9.302V22.0103H43.1734C43.1734 14.9917 37.4791 9.302 30.4548 9.302V9.302Z" fill="#EBD993"/>
</g>
<defs>
<clipPath id="clip0">
<rect width="30" height="30" fill="white" transform="translate(14 9)"/>
</clipPath>
<clipPath id="clip1">
<rect width="30" height="30" fill="white" transform="translate(14 9)"/>
</clipPath>
</defs>
</svg>
