<svg width="30" height="30" viewBox="0 0 30 30" fill="none" xmlns="http://www.w3.org/2000/svg">
<path d="M10.2221 15.9023L10.4121 15.7284L15.4539 11.1109L8.6057 15.4815L8.35124 15.6439L8.06351 15.5526L3.52818 14.1138L10.2221 15.9023ZM10.2221 15.9023L10.2042 16.1593L9.8734 20.9057L9.8253 21.5957H10.517C10.8586 21.5957 11.1428 21.518 11.3914 21.3719C11.607 21.2451 11.7718 21.0777 11.884 20.9638C11.8881 20.9597 11.8921 20.9556 11.896 20.9517M10.2221 15.9023L11.896 20.9517M11.896 20.9517L13.716 19.1776L17.8728 22.2825L17.905 22.3066L17.94 22.3265C18.4372 22.6092 19.0333 22.7759 19.5929 22.5173C20.1458 22.2618 20.4226 21.7008 20.5535 21.115L20.5536 21.115L20.5554 21.1064L23.5351 6.86508L23.5357 6.86451L23.5745 6.68015C23.7308 5.93696 23.6384 5.2271 23.1672 4.76464C22.6836 4.28994 22.006 4.27303 21.4416 4.48729L21.4416 4.48726L21.4359 4.48948L3.69383 11.4178L3.69382 11.4178L3.69101 11.4189C3.34481 11.556 3.04496 11.7235 2.81689 11.9273C2.59175 12.1284 2.38955 12.4096 2.35874 12.7659C2.32621 13.142 2.49649 13.4541 2.72307 13.6701C2.93999 13.877 3.22576 14.0181 3.52757 14.1136L11.896 20.9517Z" fill="#6BACE0" stroke="white" stroke-width="1.29032"/>
</svg>
