<svg width="30" height="30" viewBox="0 0 30 30" fill="none" xmlns="http://www.w3.org/2000/svg">
<path d="M10.0173 27.6126L10.0174 27.6124L13.3909 24.239H17.4548C22.5487 24.239 26.6919 20.0958 26.6919 15.0018V11.3195C26.6919 6.22547 22.5487 2.08231 17.4548 2.08231H12.5451C7.45107 2.08231 3.30792 6.22547 3.30792 11.3195V15.0018C3.30792 18.4392 5.21356 21.5708 8.21763 23.164V26.8669C8.21763 27.7952 9.35604 28.2735 10.0173 27.6126Z" fill="#6E5FEC" stroke="white" stroke-width="1.29032"/>
<path d="M21.1772 17.9775L20.8093 15.9848C20.7789 15.8202 20.6514 15.6907 20.4872 15.6578L17.5941 15.0792C17.4598 15.0525 17.3213 15.0944 17.2245 15.1911L16.0492 16.3665C14.0689 15.4792 12.9698 14.3777 12.0027 12.3124L13.1743 11.1409C13.271 11.0441 13.313 10.9054 13.2862 10.7713L12.7076 7.87816C12.6748 7.71406 12.5453 7.58645 12.3806 7.55605L10.388 7.18825C10.3334 7.17823 10.2772 7.17929 10.223 7.19161C9.69689 7.31113 9.21682 7.57624 8.83468 7.95846C8.17301 8.62014 7.92013 9.58565 8.10345 10.7507C8.41118 12.7069 9.3696 15.4293 11.1379 17.2047L11.162 17.2287C12.936 18.9957 15.6585 19.9542 17.6149 20.262C17.8613 20.3008 18.0987 20.3201 18.3263 20.3201C19.1746 20.3201 19.8853 20.0525 20.4071 19.5307C20.7893 19.1486 21.0545 18.6685 21.174 18.1424C21.1861 18.0882 21.1872 18.0321 21.1772 17.9775Z" fill="white"/>
<path d="M12.7743 11.5408L13.1743 11.1407L13.1747 11.1403L12.7742 11.5407L12.7743 11.5408Z" fill="#E5E5E5"/>
<path d="M17.2245 15.1907L16.8205 15.5946L16.8206 15.5947L17.2245 15.1907L17.2245 15.1907Z" fill="#E5E5E5"/>
<path d="M19.0975 19.5482C18.8699 19.5482 18.6326 19.529 18.3861 19.4901C16.4298 19.1824 13.7073 18.2239 11.9333 16.4568L11.9091 16.4328C10.1409 14.6575 9.18243 11.935 8.8747 9.97878C8.72661 9.03757 8.86353 8.22666 9.27049 7.60089C9.11464 7.70487 8.96837 7.82415 8.83438 7.95814C8.17271 8.61982 7.91982 9.58533 8.10315 10.7503C8.41087 12.7066 9.3693 15.429 11.1376 17.2044L11.1617 17.2284C12.9357 18.9954 15.6582 19.9539 17.6146 20.2617C17.861 20.3005 18.0984 20.3198 18.326 20.3198C19.1743 20.3198 19.885 20.0522 20.4068 19.5304C20.5408 19.3964 20.6601 19.2502 20.764 19.0944C20.302 19.3948 19.7392 19.5482 19.0975 19.5482Z" fill="#E5E5E5"/>
<path d="M15.8183 9.68276C15.5924 9.68276 15.4092 9.86594 15.4092 10.0919C15.4092 10.3178 15.5924 10.501 15.8183 10.501C16.7208 10.501 17.4549 11.2352 17.4549 12.1376C17.4549 12.3605 17.6411 12.5467 17.864 12.5467C18.087 12.5467 18.2732 12.3605 18.2732 12.1376C18.2732 10.784 17.172 9.68276 15.8183 9.68276Z" fill="white"/>
<path d="M15.8183 8.04608C15.667 8.04608 15.5142 8.05447 15.3643 8.07101C15.1397 8.0958 14.9777 8.29796 15.0025 8.52261C15.0273 8.74726 15.2299 8.90882 15.4541 8.88441C15.5743 8.87113 15.6968 8.86438 15.8183 8.86438C17.6231 8.86438 19.0914 10.3327 19.0914 12.1375C19.0914 12.259 19.0847 12.3816 19.0714 12.5018C19.047 12.7233 19.2116 12.929 19.4332 12.9534C19.6548 12.9778 19.8603 12.8132 19.8848 12.5916C19.9013 12.4416 19.9097 12.2889 19.9097 12.1375C19.9097 9.88152 18.0743 8.04608 15.8183 8.04608Z" fill="white"/>
<path d="M15.8188 6.40961C15.6725 6.40961 15.5245 6.41517 15.3787 6.42624C15.1534 6.44331 14.9845 6.63986 15.0016 6.86514C15.0186 7.09046 15.2159 7.2593 15.4405 7.24224C15.5658 7.23269 15.6931 7.2279 15.8188 7.2279C18.526 7.2279 20.7285 9.43038 20.7285 12.1376C20.7285 12.5207 20.6843 12.902 20.5971 13.2709C20.5471 13.4823 20.6773 13.7021 20.887 13.7595C21.1075 13.8199 21.3409 13.6816 21.3935 13.4591C21.4952 13.0286 21.5468 12.584 21.5468 12.1376C21.5468 8.97916 18.9772 6.40961 15.8188 6.40961Z" fill="white"/>
</svg>
