<svg width="30" height="30" viewBox="0 0 30 30" fill="none" xmlns="http://www.w3.org/2000/svg">
<path d="M1.38058 28.5455L3.29894 21.5767C2.11602 19.5326 1.49375 17.2145 1.4946 14.8551C1.4946 7.43861 7.55835 1.40522 14.9969 1.40522C18.6124 1.40522 21.9998 2.80833 24.5487 5.34724C27.0975 7.88627 28.4995 11.2672 28.4995 14.8618C28.4995 22.2782 22.4358 28.3116 14.9971 28.3116H14.9904C12.7298 28.3116 10.5096 27.7437 8.53757 26.6747L1.38058 28.5456V28.5455Z" fill="#7ADA5F"/>
<path d="M0.890999 29.0332L2.87639 21.8172C1.65565 19.7058 1.00491 17.3071 1.0117 14.8551C1.0117 7.17133 7.29002 0.924095 15.0039 0.924095C18.7466 0.924095 22.2613 2.3739 24.8976 5.00643C27.5403 7.63896 28.9958 11.1401 28.9892 14.8617C28.9892 22.5455 22.7108 28.7927 14.997 28.7927H14.9904C12.654 28.7918 10.3549 28.2083 8.30287 27.0955L0.890999 29.0333V29.0332ZM8.65162 24.5699L9.0742 24.8238C10.8585 25.8795 12.9042 26.4341 14.9904 26.4408H14.9971C21.4028 26.4408 26.6214 21.2493 26.6214 14.8617C26.6214 11.7682 25.414 8.86172 23.2206 6.6702C21.0272 4.47869 18.1027 3.276 14.9971 3.276C8.58459 3.276 3.36612 8.46752 3.36612 14.8551C3.36612 17.0399 3.97643 19.1713 5.14361 21.0153L5.41865 21.4563L4.24479 25.7258L8.65162 24.5699Z" fill="white"/>
<path d="M11.5023 9.02238C11.2407 8.44105 10.9656 8.42763 10.7175 8.42098C10.5163 8.41432 10.2816 8.41432 10.0468 8.41432C9.81202 8.41432 9.43632 8.50117 9.11441 8.84856C8.79238 9.19607 7.89355 10.0379 7.89355 11.7552C7.89355 13.4655 9.14792 15.1225 9.3223 15.3564C9.49667 15.5903 11.7437 19.2183 15.2921 20.6148C18.2434 21.7774 18.8472 21.5435 19.4843 21.4834C20.1283 21.4232 21.5503 20.6415 21.8454 19.8264C22.1338 19.0112 22.1338 18.3163 22.0466 18.1693C21.9594 18.0223 21.7247 17.9355 21.3759 17.7617C21.0271 17.588 19.31 16.7462 18.988 16.6259C18.666 16.5057 18.4313 16.4522 18.2032 16.7996C17.9684 17.147 17.2977 17.9288 17.0964 18.1627C16.8952 18.3965 16.6873 18.4232 16.3384 18.2495C15.9897 18.0758 14.8628 17.7083 13.528 16.519C12.4884 15.5969 11.7841 14.4544 11.5827 14.107C11.3815 13.7596 11.5627 13.5723 11.7371 13.3988C11.8913 13.245 12.0858 12.9911 12.2603 12.7907C12.4347 12.5903 12.495 12.4433 12.6091 12.2094C12.7231 11.9756 12.6694 11.7751 12.5822 11.6014C12.495 11.4276 11.8109 9.71051 11.5023 9.02238Z" fill="white"/>
</svg>
